<svg enable-background="new 0 0 6500 4400" viewBox="0 0 6500 4400" xmlns="http://www.w3.org/2000/svg"><ellipse cx="3250" cy="3808.334" fill="#c2d4e1" rx="3151.54" ry="370.217"/><path d="m2791.533 732.876h232.648v2048.016h-232.648z" fill="#464e67"/><path d="m4315.484 732.876h232.648v2048.016h-232.648z" fill="#464e67"/><path d="m2047.088 3439.239 744.445-658.347h1748.74l725.4 658.347z" fill="#bbe0dd"/><path d="m4708.458 1235.52h54.101v1862.269h-54.101z" fill="#7da69d"/><path d="m4580.446 1121.776h54.1v1862.268h-54.1z" fill="#7da69d"/><path d="m2581.745 1229.509h54.1v1862.269h-54.1z" fill="#7da69d"/><path d="m2709.756 1115.764h54.1v1862.268h-54.1z" fill="#7da69d"/><path d="m2047.088 958.274v5.474 334.727 2084.999 323.386 249.619h3218.585v-249.619-323.386-2084.999-334.727-5.474zm2652.141 2425.2h-2085.696c-124.951 0-226.244-101.293-226.244-226.243v-1632.513c0-124.95 101.293-226.243 226.244-226.243h2085.696c124.951 0 226.244 101.293 226.244 226.243v1632.513c0 124.95-101.293 226.243-226.244 226.243z" fill="#6764aa"/><path d="m2047.088 3439.239h3218.585v517.241h-3218.585z" fill="#555089"/><path d="m2369.229 3499.207h880.77v341.54h-880.77z" fill="#1d1b4b"/><path d="m2393.744 3523.316h820.896v285.018h-820.896z" fill="#bdede5"/><path d="m2393.744 3808.334 442.391-285.018h115.721l-462.887 285.018z" fill="#fff"/><path d="m2558.885 3808.334 433.955-285.018h31.342l-421.902 285.018z" fill="#fff"/><g fill="#9fccc7"><path d="m3394.261 3523.316h134.108v91.799h-134.108z"/><path d="m3589.327 3523.316h134.108v91.799h-134.108z"/><path d="m3784.393 3523.316h134.108v91.799h-134.108z"/><path d="m3979.459 3523.316h134.108v91.799h-134.108z"/><path d="m3394.261 3660.961h134.108v91.799h-134.108z"/><path d="m3589.327 3660.961h134.108v91.799h-134.108z"/><path d="m3784.393 3660.961h134.108v91.799h-134.108z"/><path d="m3979.459 3660.961h134.108v91.799h-134.108z"/></g><path d="m4794.772 3532.85c0 32.007 25.947 57.954 57.954 57.954h249.84c32.007 0 57.954-25.947 57.954-57.954 0-32.007-25.947-57.954-57.954-57.954h-249.84c-32.007 0-57.954 25.947-57.954 57.954z" fill="#ffab31"/><path d="m4794.772 3712.428c0 32.007 25.947 57.954 57.954 57.954h249.84c32.007 0 57.954-25.947 57.954-57.954 0-32.007-25.947-57.954-57.954-57.954h-249.84c-32.007 0-57.954 25.947-57.954 57.954z" fill="#ffab31"/><path d="m4794.772 3880.87c0 32.007 25.947 57.954 57.954 57.954h249.84c32.007 0 57.954-25.947 57.954-57.954 0-32.007-25.947-57.954-57.954-57.954h-249.84c-32.007 0-57.954 25.947-57.954 57.954z" fill="#ffab31"/><path d="m4548.133 732.876h-1756.6l-744.445 230.871h3218.585zm-1675.063 91.632h1636.724l201.161 60.708h-2038.155z" fill="#555089"/><path d="m2997.278 2988.69h1318.207v215.443h-1318.207z" fill="#def1ed"/><path d="m2997.278 2988.69 187.145-189.981h931.785l199.276 189.981z" fill="#e7fffa"/><path d="m3871.505 2005.392h-1235.661v27.051h1236.274c-2.482-9.097-2.96-18.465-.613-27.051z" fill="#7da69d"/><path d="m3893.798 1954.932h-1156.992v27.051h1152.828c3.336-1.791 6.546-1.523 9.112 0h2.777c-6.677-7.697-10.156-16.96-7.725-27.051z" fill="#7da69d"/><path d="m3272.345 1954.932h618.725v103.989h-618.725z" fill="#00a9a7"/><path d="m3461.316 2058.92h177.408v54.481h-177.408z" fill="#00827f"/><path d="m3614.787 2110.396h-46.734-41.97-46.735l-30.478 47.241v245.357l64.005 51.378h13.208 41.97 13.208l64.006-51.378v-245.357z" fill="#ab3d5b"/><path d="m3558.848 2110.396 28.955 50.247v234.689l-40.735 59.04h34.193l64.006-51.378v-245.357l-30.48-47.241z" fill="#88304c"/><path d="m3272.345 1954.932 85.341-42.692h580.626l-47.242 42.692z" fill="#00a9a7"/><path d="m3938.312 1912.24v112.48l-47.242 34.2v-103.988z" fill="#00827f"/><path d="m3881.701 2643.362c-4.27.916-8.539 1.837-12.809 2.741l9.25 16.023c7.372 12.768-1.843 28.728-16.587 28.728h-41.475c-6.843 0-13.166-3.65-16.587-9.576l-11.678-20.227c-4.371.744-8.74 1.51-13.119 2.205l14.003 24.253c3.422 5.925 3.422 13.227 0 19.152l-45.289 78.445c-3.421 5.925-9.744 9.575-16.586 9.575h-90.579c-6.842 0-13.165-3.651-16.586-9.575l-45.29-78.445c-3.421-5.925-3.421-13.226 0-19.152l45.29-78.444c2.119-3.672 5.355-6.463 9.136-8.061-.432-5.341-.804-10.691-1.119-16.047-3.291-1.652-6.112-4.21-8.017-7.507l-20.738-35.919c-7.371-12.768 1.843-28.729 16.586-28.729h4.762c-.906-4.175-1.928-8.333-3.134-12.463h-38.135c-6.843 0-13.166 3.65-16.586 9.577l-102.534 177.593c-3.421 5.925-3.421 13.227 0 19.152l102.534 177.594c3.421 5.926 9.744 9.576 16.586 9.576h205.067c6.843 0 13.165-3.65 16.586-9.576l102.535-177.594c3.421-5.925 3.421-13.226 0-19.152zm-388.773 18.763 66.027-114.363c7.372-12.769 25.801-12.769 33.172 0l20.738 35.919c3.422 5.925 3.422 13.226 0 19.153l-45.29 78.443c-3.421 5.926-9.744 9.576-16.586 9.576h-41.475c-14.743.001-23.958-15.959-16.586-28.728zm66.027 184.283-66.027-114.363c-7.372-12.768 1.844-28.729 16.586-28.729h41.475c6.843 0 13.166 3.651 16.586 9.576l45.29 78.443c3.422 5.926 3.422 13.228 0 19.153l-20.738 35.919c-7.371 12.77-25.8 12.77-33.172.001zm192.607 34.96h-132.054c-14.743 0-23.958-15.96-16.586-28.729l20.738-35.919c3.421-5.925 9.744-9.576 16.586-9.576h90.578c6.843 0 13.166 3.651 16.586 9.576l20.738 35.919c7.372 12.769-1.843 28.729-16.586 28.729zm126.58-149.323-66.028 114.363c-7.371 12.768-25.801 12.768-33.172 0l-20.738-35.919c-3.421-5.925-3.421-13.226 0-19.153l45.29-78.443c3.421-5.926 9.744-9.576 16.587-9.576h41.475c14.743 0 23.958 15.96 16.586 28.728z" fill="#ffa11e"/><path d="m3890.686 2019.578c.02.357.047.715.079 1.073.611 6.764 6.581 11.792 13.372 11.792h817.892c7.443 0 13.478-6.035 13.478-13.479v-.093c0-7.444-6.035-13.479-13.478-13.479h-817.861c-7.722 0-13.918 6.476-13.482 14.186z" fill="#7da69d"/><path d="m3913.272 1963.778c-.386 1.346-.755 2.745-1.103 4.146-1.771 7.148 3.653 14.058 11.019 14.058h684.308v-27.051h-682.553c-5.434.001-10.172 3.624-11.671 8.847z" fill="#7da69d"/><path d="m3510.081 1933.586s-27.294-174.757 150.94-314.96c178.234-140.204 157.914-320.15 157.914-320.15h148.332s-12.192 230.745-113.788 348.597c-101.597 117.853-166.619 205.237-166.619 286.514h-176.779z" fill="#343590"/><path d="m3737.924 885.216s-597.903-500.457-1065.125-361.537c-467.22 138.921-433.693 388.849-433.693 388.849l-115.826 27.591s-7.355-440.624 549.52-528.23c556.874-87.605 1132.499 394.795 1228.722 473.327z" fill="#343590"/><path d="m3983.409 337.409v2161.277h-796.977-2745.339v-2161.277z" fill="#eff1ff"/><path d="m346.208 221.449h3700.48v316.28h-3700.48z" fill="#c2d4e1"/><ellipse cx="537.294" cy="397.223" fill="#45c7d0" rx="96.201" ry="96.201" transform="matrix(.7071 -.7071 .7071 .7071 -123.5091 496.2684)"/><ellipse cx="861.482" cy="397.223" fill="#45c7d0" rx="96.201" ry="96.201" transform="matrix(.7071 -.7071 .7071 .7071 -28.5568 725.5035)"/><ellipse cx="1185.669" cy="397.223" fill="#45c7d0" rx="96.201" ry="96.201" transform="matrix(.7071 -.7071 .7071 .7071 66.3955 954.7386)"/><path d="m604.503 627.342h1386.363v1138.61h-1386.363z" fill="#fff"/><path d="m1491.453 730.134h-494.164c-16.489 0-31.725 8.797-39.969 23.076l-247.08 427.958c-8.245 14.279-8.245 31.873 0 46.152l247.081 427.958c8.244 14.281 23.48 23.077 39.969 23.077h494.163c16.488 0 31.724-8.796 39.969-23.075l247.083-427.959c8.245-14.279 8.245-31.873 0-46.153l-247.084-427.958c-8.244-14.28-23.48-23.076-39.968-23.076zm-137.946 709.293h-218.272c-16.489 0-31.724-8.797-39.969-23.076l-109.137-189.031c-8.244-14.279-8.244-31.873 0-46.152l109.137-189.03c8.245-14.28 23.48-23.077 39.969-23.077h218.274c16.489 0 31.725 8.797 39.969 23.077l109.136 189.03c8.245 14.279 8.245 31.873 0 46.152l-109.137 189.031c-8.245 14.279-23.481 23.076-39.97 23.076zm0-500.399h-218.272c-16.488 0-31.724-8.797-39.968-23.076l-49.974-86.556c-17.764-30.768 4.441-69.228 39.969-69.228h318.218c35.527 0 57.733 38.46 39.969 69.228l-49.973 86.556c-8.244 14.279-23.48 23.076-39.969 23.076zm-284.25 38.094-109.137 189.029c-8.245 14.279-23.481 23.075-39.969 23.075h-99.947c-35.527 0-57.732-38.459-39.968-69.228l159.109-275.585c17.764-30.769 62.174-30.769 79.938 0l49.974 86.556c8.244 14.279 8.244 31.873 0 46.153zm-109.137 265.215 109.137 189.03c8.244 14.279 8.244 31.872 0 46.153l-49.974 86.556c-17.764 30.768-62.174 30.768-79.938 0l-159.109-275.588c-17.764-30.767 4.441-69.228 39.968-69.228h99.947c16.488 0 31.724 8.797 39.969 23.077zm175.115 227.123h218.272c16.489 0 31.725 8.797 39.969 23.077l49.973 86.555c17.764 30.769-4.441 69.229-39.969 69.229h-318.218c-35.527 0-57.733-38.46-39.969-69.229l49.974-86.555c8.244-14.279 23.48-23.077 39.968-23.077zm284.252-38.093 109.137-189.03c8.244-14.28 23.48-23.077 39.969-23.077h99.945c35.529 0 57.734 38.461 39.97 69.228l-159.111 275.587c-17.764 30.768-62.174 30.768-79.937 0l-49.973-86.555c-8.245-14.281-8.245-31.874 0-46.153zm109.137-265.216-109.137-189.029c-8.245-14.281-8.245-31.874 0-46.153l49.973-86.556c17.765-30.769 62.175-30.769 79.938 0l159.11 275.585c17.763 30.769-4.442 69.228-39.97 69.228h-99.945c-16.489 0-31.725-8.796-39.969-23.075z" fill="#ceeee7"/><path d="m609.774 1837.585v286.63h687.91v-294.819z" fill="#fff"/><path d="m1351.855 1825.822h1860.626v62.251h-1860.626z" fill="#e9763f"/><path d="m1351.855 1957.241h1860.626v62.251h-1860.626z" fill="#e9763f"/><path d="m3804.206 2178.889-3178.617 20.441v186.754h3178.617z" fill="#c2d4e1"/><path d="m3849.013 785.482h-1692.101c-36.391 0-65.891-29.5-65.891-65.892 0-36.391 29.5-65.892 65.891-65.892h1692.101c36.391 0 65.891 29.501 65.891 65.892 0 36.392-29.5 65.892-65.891 65.892z" fill="#d6d7e3"/><path d="m2143.734 1006.879h1660.472v79.07h-1660.472z" fill="#fff"/><path d="m2143.734 1196.647h1660.472v79.07h-1660.472z" fill="#fff"/><path d="m2143.734 1386.415h1660.472v79.07h-1660.472z" fill="#fff"/><path d="m1132.439 3579.925s-22.139 192.737 0 236.694l-162.877 32.123 49.021-316.156z" fill="#fda382"/><path d="m1126.866 3938.546s133.563 35.227 235.853 6.938c15.244-4.216 24.794-20.476 21.452-36.927-4.048-19.926-20.979-43.882-75.667-53.37 0 0-147.026-67.988-187.935-122.083 0 0-84.692 45.249-135.213 10.153 0 0-38.425 29.525-44.692 87.696-4.559 42.323 24.058 80.54 63.622 85.621 41.518 5.33 96.586 13.48 122.58 21.972z" fill="#3f1bc9"/><path d="m917.091 3557.944s-22.138 192.737 0 236.694l-162.876 32.123 49.021-316.156z" fill="#fda382"/><path d="m914.357 3938.132s133.563 35.227 235.853 6.938c15.244-4.216 24.795-20.476 21.452-36.927-4.048-19.926-20.979-43.881-75.667-53.37 0 0-147.026-67.988-187.936-122.083 0 0-89.093 34.951-139.614-.145 0 0-34.024 39.823-40.291 97.994-4.559 42.323 24.058 80.54 63.622 85.62 41.52 5.331 96.588 13.481 122.581 21.973z" fill="#6039d2"/><path d="m958.792 2125.307 104.07 719.168-63.256 750.662 32.605 5.318 133.441 21.734 124.758-724.086c12.723-73.886 18.574-148.939 17.467-224.07l-9.402-634.307-344.729 50.722z" fill="#3340b0"/><path d="m1062.862 2844.475-63.255 750.662 32.605 5.318 116.693-738.903 23.001-736.245h-213.114z" opacity=".15"/><path d="m812.221 2062.545s-50.602 123.419-26.883 426.05l19.972 382.179-39.739 751.417 174.876 10.957 119.013-637.777c21.25-115.622 32.751-233.05 34.366-350.87l8.568-625.068z" fill="#3340b0"/><path d="m1254.156 1688.976 103.197 211.668 9.479 19.033c9.864 18.07 30.807 25.461 48.652 17.148l401.75-186.961c50.633-11.696 80.383-33.78 97.468-52.91 15.719-17.6 21.677-42.425 15.895-65.622-15.387-61.732-45.348-61.331-45.348-61.331-45.289-11.328-78.487 22.97-92.928 36.684-2.208 2.115-3.403 3.329-3.403 3.329l15.191-30.612c5.185-10.406-1.094-23.2-12.112-24.645-42.15 54.755-51.892 104.505-51.892 104.505l-.588.272-287.98 130.803-10.249-28.435-41.097-113.969-56.855 15.955-27.789 7.831z" fill="#fda382"/><path d="m903.788 1363.702.719 136.028 195.518 36.889 113.573-59.945-49.124-65.878-27.157-36.413c-5.434-7.301-7.749-16.692-6.354-25.899l23.692-156.164-190.486-88.38 16.058 124.101 2.631 20.381c5.751 66.094-79.07 115.28-79.07 115.28z" fill="#fda382"/><path d="m964.169 1103.941 17.971 140.639c66.778 124.116 151.282 153.182 182.335 166.216l-27.157-36.413c-5.434-7.301-7.749-16.692-6.354-25.899l23.692-156.164z" opacity=".15"/><path d="m923.258 1123.569 28.843 56.06c28.486 34.811 55.731 60.903 80.441 80.468 70.173 55.549 119.987 58.356 119.987 58.356 21.331 1.042 36.486-17.422 47.22-45.249 30.251-78.454 25.416-231.378 25.416-231.378l-244.783-1.062z" fill="#fda382"/><path d="m927.337 1169.575c13.656 95.26 57.305 83.539 57.305 83.539l-4.126-41.684-24.586-29.94c-33.37-64.026 13.188-61.971 13.188-61.971 38.341 6.154 42.493 55.174 42.493 55.174l12.849-1.569c6.997-14.784 4.448-62.452 4.448-62.452 77.709-122.588 196.541-19.202 196.541-19.202 77.431-74.746 3.109-111.017 3.109-111.017 1.488-94.495-84.717-65.835-84.717-65.835s-64.961-46.482-95.686-8.271c0 0-54.049 2.97-66.545 62.535 0 0-49.676-4.819-59.324 48.957 0 0-1.157 1.873-2.934 5.308-19.335 37.354-19.577 82.051-1.531 120.088 4.55 9.589 8.531 19.466 9.516 26.34z" fill="#8b3422"/><path d="m1320.3 1822.422 38.02-19.538 78.678-40.449 17.327-8.914c-73.988-248.211-123.699-294.466-144.816-301.573-7.615-2.557-11.512-.041-11.512-.041l-64.298 243.204z" fill="#fd5d4b"/><path d="m1250.727 1697.08 98.423 188.572-36.458-349.675-24.306-14.657-24.305-33.502c-7.607-2.486-44.56 2.094-44.56 2.094l-44.56 123.538z" opacity=".15"/><path d="m732.736 1737.157 2.387 126.787 1.063 56.306 1.882 99.391.767 40.635.296 15.868.767 40.437.558 29.36-.191 13.113-.784 56.504-.68 48.939 601.118-25.217-2.039-26.316-4.391-56.504-3.101-39.879-3.885-42.995-1.202-13.311-3.903-43.175-8.747-96.851-4.635-51.262c-.139-1.675-.226-3.368-.157-5.043v-.306l4.408-139.72 1.794-56.306 3.45-109.406 1.777-56.306 1.011-31.863c.244-7.601-3.885-14.554-10.384-17.562l-124.179-57.297-4.983-2.306-45.197-20.858c17.406 47.192.07 72.787-21.605 86.566-10.088 6.43-21.257 10.141-32.635 11.258-2.718.252-5.419.378-8.137.324-11.43-.108-22.912-2.864-33.541-8.159-132.158-65.618-103.444-122.41-103.444-122.41l-40.353 28.225-6.726 4.701-143.468 100.311-1.429 29.071-2.77 56.306-5.384 109.406-1.307 26.604-1.464 29.702-.505 10.249c-.052 1.008-.069 1.999-.052 2.989z" fill="#fd5d4b"/><path d="m1099.435 2228.761h.087" fill="#203f92"/><path d="m732.71 1735.667 7.749 410.283 25.316 1.644 57.765-460.037-88.789 6.655z" opacity=".15"/><path d="m1317.59 1995.378h-84.615c-6.783 0-12.479-5.103-13.223-11.844l-25.963-235.265h162.987l-25.962 235.265c-.744 6.741-6.441 11.844-13.224 11.844z" fill="#8396cc"/><path d="m1355.9 1758.784h-161.234c-5.323 0-9.639-4.316-9.639-9.639 0-5.323 4.316-9.639 9.639-9.639h161.234c5.324 0 9.639 4.316 9.639 9.639 0 5.323-4.315 9.639-9.639 9.639z" fill="#131428"/><path d="m1344.508 1909.503s.977 57.392-150.366 54.967l-499.582 95.569c-58.202 11.209-95.564-24.115-87.273-77.023l29.566-208.878 182.995-66.613-63.963 209.13 368.294-52.805 13.766-1.977s21.578-43.016 76.975-82.299c10.727 4.142 14.022 17.441 6.35 25.644l-22.548 24.105s1.552-.844 4.372-2.245c18.037-8.968 95.151-32.345 137.907-10.458.002-.002 19.28 26.286 3.507 92.883z" fill="#fda382"/><path d="m753.195 1472.167s-88.053-2.409-119.681 320.37l152.389 59.945c-.001 0 117.163-359.461-32.708-380.315z" fill="#fd5d4b"/><path d="m1059.239 1488.571c11.443-2.782 13.341-16.923 13.456-17.983-1.969 8.315-7.734 14.125-13.456 17.983z" opacity=".15"/><path d="m1739.516 1659.536 10.674 18.824 40.509-39.783c-2.208 2.115-1.782-28.56-1.782-28.56l15.191-30.612c5.185-10.406-1.094-23.2-12.112-24.645-42.15 54.755-51.892 104.505-51.892 104.505z" fill="#da955e"/><path d="m1883.871 1569.479s-51.85 91.39 34.839 116.886z" fill="#da955e"/><path d="m5692.938 1166.229c0 123.982 47.581 228.621 49.016 228.621 2.882 0 47.433-126.602 47.433-229.332 0-97.837-46.498-228.657-49.032-228.657-1.424.069-47.417 132.919-47.417 229.368z" fill="#66bda4"/><path d="m5975.909 2356.468c-101.698 56.873-165.743 143.877-165.107 145.035 1.375 2.376 125.639-19.119 209.941-66.28 80.239-44.818 166.215-142.938 165.073-144.998-.673-1.191-130.778 21.996-209.907 66.243z" fill="#66bda4"/><path d="m6050.405 2004.313c-101.696 56.825-165.743 143.873-165.084 145.031 1.354 2.375 125.629-19.157 209.919-66.281 80.24-44.861 166.233-142.981 165.063-145.036-.679-1.186-130.745 22.034-209.898 66.286z" fill="#66bda4"/><path d="m5915.082 1581.359c-63.111 51.023-96.809 118.282-96.205 118.995 1.185 1.484 83.948-27.907 136.227-70.207 49.799-40.213 97.26-117.657 96.188-118.963-.598-.717-87.129 30.539-136.21 70.175z" fill="#66bda4"/><path d="m5599.681 1498.672c66.96 45.765 83.013 96.494 82.479 97.292-1.087 1.55-63.001-7.542-118.477-45.476-52.84-36.128-81.675-93.497-80.719-94.834.534-.788 64.628 7.353 116.717 43.018z" fill="#66bda4"/><path d="m5528.496 2915.296c75.704 88.526 105.661 192.333 104.633 193.237-2.061 1.69-111.207-61.48-173.97-134.862-59.755-69.881-106.465-191.698-104.645-193.252 1.039-.856 115.03 65.953 173.982 134.877z" fill="#66bda4"/><path d="m5493.536 2500.917c87.46 76.961 131.757 175.51 130.888 176.515-1.828 2.022-118.805-45.144-191.29-108.934-69.022-60.719-132.469-174.743-130.881-176.51.896-1.012 123.202 49.043 191.283 108.929z" fill="#66bda4"/><path d="m5477.647 1762.024c103.47 53.48 170.354 138.39 169.712 139.587-1.24 2.375-126.167-15.041-211.941-59.397-81.708-42.22-170.833-137.494-169.734-139.588.641-1.191 131.418 17.783 211.963 59.398z" fill="#66bda4"/><path d="m5739.094 1195.806 24.002 2239.535h-48.009z" fill="#3c7262"/><path d="m5740.942 2217.245 317.206-154.525-308.885 170.567z" fill="#3c7262"/><path d="m5734.831 1959.305-242.567-140.386 251.093 124.481z" fill="#3c7262"/><path d="m5937.746 1343.936c-70.212 40.642-90.038 90.011-89.565 90.843.963 1.62 63.394-2.784 121.577-36.422 55.396-32.093 88.457-87.085 87.608-88.564-.478-.789-64.987 2.56-119.62 34.143z" fill="#66bda4"/><path d="m5735.734 1481.62 232.126-108.217-223.932 124.291z" fill="#3c7262"/><path d="m5823.085 2799.901c-30.843 74.959-16.427 126.237-15.562 126.563 1.771.685 48.526-40.853 74.116-103.051 24.34-59.174 16.944-122.969 15.422-123.545-.881-.365-49.957 41.642-73.976 100.033z" fill="#66bda4"/><path d="m5753.439 3036.16 108.745-232.806-92.122 239.881z" fill="#3c7262"/><path d="m5622.036 2521.047c20.581 78.429 62.958 110.664 63.882 110.414 1.8-.506 14.09-61.882-2.941-126.896-16.249-61.914-60.572-108.357-62.16-107.923-.919.245-14.785 63.35 1.219 124.405z" fill="#66bda4"/><path d="m5708.828 2751.575-53.487-251.338 71.007 246.972z" fill="#3c7262"/><path d="m5422.758 2353.836c80.903-5.845 120.321-41.615 120.25-42.551-.141-1.844-58.216-25.204-125.302-20.337-63.833 4.649-117.591 39.701-117.455 41.36.082.94 59.56 26.107 122.507 21.528z" fill="#66bda4"/><path d="m5740.312 2315.283-331.877 2.017 331.262-20.082z" fill="#3c7262"/><path d="m5790.818 1985.662c20.608 78.51 62.958 110.669 63.866 110.414 1.822-.462 14.105-61.844-2.941-126.896-16.243-61.87-60.545-108.314-62.16-107.885-.896.245-14.779 63.312 1.235 124.367z" fill="#66bda4"/><path d="m5861.78 2157.49-37.672-192.595 55.215 188.305z" fill="#3c7262"/><path d="m5988.475 2560.096c-80.18-12.257-126.548 13.812-126.672 14.747-.283 1.881 51.164 37.542 117.613 47.711 63.279 9.701 123.486-12.513 123.737-14.139.13-.973-52.269-38.727-114.678-48.319z" fill="#66bda4"/><path d="m5742.444 2548.166 251.914 50.766-254.851-32.964z" fill="#3c7262"/><path d="m5944.81 3076.041c-73.317 34.687-97.135 82.289-96.743 83.121.815 1.697 63.437 2.453 124.177-26.285 57.857-27.379 95.334-79.511 94.617-80.996-.403-.859-64.993-2.843-122.051 24.16z" fill="#66bda4"/><path d="m5734.255 3203.877 237.129-98.951-229.593 115.357z" fill="#3c7262"/><path d="m5602.128 2789.406c51.68 62.523 53.072 115.71 52.355 116.292-1.469 1.223-58.467-24.601-101.306-76.445-40.805-49.326-52.616-112.403-51.338-113.486.713-.576 60.049 24.993 100.289 73.639z" fill="#66bda4"/><path d="m5724.837 3006.127-159.033-201.833 172.812 190.142z" fill="#3c7262"/><path d="m5999.791 1774.498c-80.191-12.295-126.558 13.812-126.689 14.715-.293 1.87 51.153 37.537 117.597 47.738 63.273 9.669 123.492-12.551 123.731-14.176.125-.975-52.246-38.729-114.639-48.277z" fill="#66bda4"/><path d="m5753.744 1762.567 251.898 50.729-254.846-32.926z" fill="#3c7262"/><path d="m5927.403 1459.368c-63.36 1.332-92.919 34.547-92.823 35.482.207 1.832 46.804 28.134 99.333 27.047 50-1.045 90.869-32.747 90.69-34.367-.103-.973-47.868-29.173-97.2-28.162z" fill="#66bda4"/><path d="m5739.214 1489.619 200.935 6.716-200.837 9.189z" fill="#3c7262"/><path d="m5838.464 2271.112c-40.528 48.717-34.802 92.784-34.062 93.361 1.528 1.043 51.919-16.912 85.525-57.304 31.99-38.433 34.84-90.109 33.497-91.049-.795-.539-53.41 17.096-84.96 54.992z" fill="#66bda4"/><path d="m5737.92 2433.058 136.787-147.34-124.705 157.688z" fill="#3c7262"/><path d="m5891.221 1959.92c-16.249 61.268 7.477 98.837 8.384 99.021 1.876.321 40.017-37.222 53.485-87.989 12.823-48.32-6.323-96.395-7.943-96.677-.94-.147-41.251 37.933-53.926 85.645z" fill="#66bda4"/><path d="m5868.197 2149.126 62.066-191.229-46.764 195.552z" fill="#3c7262"/><path d="m5622.617 1459.591c27.282 57.184 69.691 70.458 70.501 70.016 1.631-.973 6.406-54.263-16.199-101.685-21.534-45.15-67.265-69.343-68.657-68.511-.838.468-6.874 55.645 14.355 100.18z" fill="#66bda4"/><path d="m5727.599 1618.679-76.542-185.917 91.006 179.277z" fill="#3c7262"/><path d="m5549.686 1624.274c73.432 58.587 78.357 124.226 77.412 125.237-1.882 2.012-80.425-8.907-141.284-57.482-57.945-46.193-77.554-120.299-75.873-122.066.94-.974 82.583 8.764 139.745 54.311z" fill="#66bda4"/><path d="m5729.719 1847.804-228.277-191.513 242.699 172.867z" fill="#3c7262"/><path d="m5576.712 2190.774c58.521 24.301 73.959 65.954 73.529 66.781-.859 1.696-53.85 9.195-102.372-10.957-46.188-19.157-72.703-63.578-71.941-65.052.425-.837 55.194-9.706 100.784 9.228z" fill="#66bda4"/><path d="m5735.114 2302.2-183.742-81.681 189.619 66.895z" fill="#3c7262"/><path d="m5501.312 2049.306c70.071-40.822 122.795-33.536 123.274-32.741.918 1.658-33.861 53.698-91.942 87.521-55.323 32.235-119.505 33.611-120.315 32.164-.469-.789 34.421-55.139 88.983-86.944z" fill="#66bda4"/><path d="m5735.103 1963.525-225.025 124.04 215.748-139.549z" fill="#3c7262"/><path d="m5730.1 2782.914-222.795-208.463 234.737 194.9z" fill="#3c7262"/><path d="m6056.92 2878.15c-107.08 45.934-179.859 125.776-179.316 127.032 1.088 2.496 126.939-5.944 215.667-44.063 84.507-36.237 180.239-124.877 179.288-127.037-.554-1.261-132.343 8.249-215.639 44.068z" fill="#66bda4"/><path d="m5736.017 3044.524 343.22-114.878-337.07 131.86z" fill="#3c7262"/><path d="m5734.059 2542.869 179.631-109.919-169.56 124.916z" fill="#3c7262"/><path d="m5714.461 3209.685-168.032-192.747 181.202 180.414z" fill="#3c7262"/><path d="m5732.699 1773.41 156.879-144.166-144.099 156.928z" fill="#3c7262"/><path d="m5736.049 1637.466-141.447-92.491 150.506 76.879z" fill="#3c7262"/><path d="m5532.938 3956.479h422.775c74.269-61.077 121.632-153.644 121.632-257.358 0-118.635-62.111-282.453-155.542-383.824h-354.966c-93.432 101.37-155.532 265.188-155.532 383.824.001 103.715 47.359 196.281 121.633 257.358z" fill="#4d4595"/></svg>