<svg enable-background="new 0 0 1100 800" viewBox="0 0 1100 800" xmlns="http://www.w3.org/2000/svg"><path d="m0 0h1100v800h-1100z" fill="#8ec3cb"/><path d="m517.023 668.118c-29.109.084-58.218.762-87.276 3.892-10.956 1.18-21.683 3.776-32.664 4.823-21.934 2.092-43.476 5.993-65.488 7.793-17.726 1.449-35.526 2.305-53.201 4.143-16.571 1.724-34.916 1.326-51.359-1.522-12.173-2.109-24.402-3.296-36.371-6.682-13.389-3.789-27.934-6.498-41.884-6.4-19.892.139-39.265.155-58.301 6.845-6.683 2.348-14.863 6.209-19.938 11.137-11.617 11.282-13.189 39.432-1.59 51.133 19.537 19.693 61.233 27.42 88.617 27.785 30.008.4 59.159-1.758 89.211-3.026 27.924-1.179 55.779-2.856 83.75-2.797 57.127.121 114.262 0 171.286-3.696 53.575-3.472 107.285-2.28 160.978-2.28 55.06 0 109.747.419 164.41 7.506 23.817 3.088 48.081 4.169 72.018 6.332 21.437 1.938 42.038-.038 63.39-1.829 17.929-1.504 35.741-5.964 52.029-13.503 12.893-5.968 35.879-24.507 39.833-38.752 11.085-39.935-156.219-38.975-181.907-38.885-28.736.101-57.701 1.016-86.414-.045-12.078-.446-23.979-2.733-35.767-5.238-11.742-2.495-23.572-1.861-35.479-2.91-49.655-4.374-99.421-3.734-149.235-3.734-16.211.001-32.429-.137-48.648-.09z" fill="#f1f2f2" opacity=".4"/><path d="m514.5 398.003c1.148 3.94 1.698 8.662-1.027 11.732-2.037 2.294-5.32 2.953-8.372 3.265-2.953.302-5.926.402-8.893.302-2.48-.084-5.095-.359-7.099-1.822-2.354-1.718-3.367-4.691-4.178-7.491-3.155-10.881-5.29-22.057-6.369-33.335-1.521-15.902 14.163-3.518 19.791 1.641 7.547 6.918 13.279 15.862 16.147 25.708z" fill="#ebb044"/><path d="m403.888 704.776c-2.742.182-5.251-.781-7.907-1.08.126-9.387 1.143-18.388 3.166-27.656 4.133 4.588 7.612 1.921 7.472 10.541-.046 2.791-3.268 13.949-2.731 18.195z" fill="#eac1a4"/><path d="m395.381 699.028c-3.118-1.116-3.822 6.33-3.845 8.081-.014 1.052.11 2.125-.157 3.143-.294 1.12-1.033 2.061-1.754 2.968-1.51 1.898-3.019 3.796-4.529 5.693-.679.853-1.369 1.727-1.733 2.755-.901 2.547.587 5.568 3 6.787 8.369 4.227 16.013-6.009 17.825-12.767.278-1.036.481-2.09.683-3.143.419-2.179 2.068-6.929 1.203-9.057-1.009-2.483-4.065-.684-6.068-1.62-1.857-.87-3.364-2.388-4.625-2.84z" fill="#3b455a"/><path d="m454.834 550.108c-7.802 21.24-16.804 42.016-21.939 64.25-6.342 27.467-16.568 54.251-21.816 81.779-3.391.11-6.79-.035-10.159-.432-3.863-.456-9.994-1.498-11.388-5.717-.713-2.156.043-5.662.151-7.901.348-7.173.861-14.339 1.388-21.5 1.492-20.263 2.516-40.774 6.243-60.75 3.921-21.015 7.676-42.101 11.125-63.112 1.783-10.86 3.979-21.652 6.68-32.321.696-2.749 7.944-31.083 9.366-30.857 16.887 2.687 32.684 8.279 47.39 17.001 1.429.848 2.809 1.858 3.306 3.367s.047 2.81-.414 4.179c-4.395 13.061-10.255 25.309-14.941 38.318-1.631 4.524-3.286 9.05-4.992 13.696z" fill="#3b455a"/><path d="m456.305 703.252c2.564.989 5.245.816 7.871 1.321 2.671-9 4.377-17.896 5.202-27.346-5.31 3.151-7.839-.43-10.269 7.842-.786 2.677-1.028 14.289-2.804 18.183z" fill="#eac1a4"/><path d="m466.86 701.863c.006 5.09 4.012 10.57 6.229 15.147.261.538.527 1.098.538 1.696.016.889-.527 1.678-1.048 2.399-.723 1-1.508 2.051-2.657 2.501-1.129.442-2.397.22-3.582-.04-1.982-.435-3.943-.961-5.877-1.575-.482-.153-.973-.318-1.366-.636-.465-.377-.745-.93-1.012-1.466-1.367-2.752-2.53-4.705-2.456-7.771.076-3.167.476-6.448-.103-9.586-.286-1.522-.666-3.469.638-4.304 1.008-.646 2.854.244 3.952.423 1.936.316 3.726.196 5.509 1.213.363.207.717.456.941.81.229.36.293.765.294 1.189z" fill="#3b455a"/><path d="m453.665 540.43c1.132 22.599 3.548 45.112 1.837 67.867-2.113 28.11-.316 56.724-3.493 84.567 3.205 1.114 6.493 1.987 9.828 2.609 3.824.714 9.988 1.542 12.573-2.071 1.321-1.846 1.643-5.419 2.205-7.589 1.801-6.952 3.443-13.946 5.069-20.94 4.602-19.79 9.725-39.678 12.108-59.858 2.507-21.23 5.193-42.479 8.149-63.565 1.527-10.898 2.641-21.855 3.235-32.845.153-2.832 1.66-32.039.235-32.246-16.922-2.457-33.667-1.816-50.302 2.137-1.617.384-3.234.938-4.158 2.231-.923 1.293-.88 2.669-.847 4.113.312 13.777 2.264 27.213 2.869 41.028.211 4.806.444 9.619.692 14.562z" fill="#3b455a"/><path d="m444.161 359.077c-.275.093-.549.191-.821.294-4.543 1.724-8.407 4.826-12.187 7.88-5.678 4.586-8.474 6.597-10.666 13.388-2.045 6.334-3.326 13.023-4.578 19.551-6.429 33.511-7.671 66.882-12.286 100.645-1.256 9.19-2.226 19.994 4.571 26.307 12.06-9.386 27.219-9.927 41.846-9.94 10.272-.009 20.314-3.336 30.61-2.19 9.84 1.096 18.435-1.364 28.421-.714 2.408.157 5.475.13 6.424-2.088-3.456-10.359-3.396-21.499-4.178-32.391-2.023-28.174-11.357-55.21-15.123-83.193-1.28-9.512-1.964-25.3-9.33-32.499-8.005-7.824-26.264-7.984-36.551-6.453-2.083.309-4.159.729-6.152 1.403z" fill="#ebb044"/><path d="m451.801 358.604c.169.329.395.644.698.943 1.195 1.179 2.852 1.848 4.496 2.083 2.167.31 4.369-.049 6.52-.46 2.905-.554 2.802-2.255 3.223-4.892.23-1.441.374-2.893.482-4.347.06-.797-.249-3.652.259-4.211.345-.379 1.749-.251 2.364-.573.975-.509 1.79-1.447 2.376-2.358.945-1.469 1.465-3.164 1.974-4.835.886-2.907 1.771-5.814 2.657-8.72.905-2.97 1.815-5.965 2.105-9.056.438-4.659-.315-11.237-3.832-14.643-3.208-3.108-7.888-4.196-12.181-4.744-5.684-.726-11.575.314-16.484 3.331-1.982 1.218-3.862 2.798-5.032 4.97-1.805 3.349-1.667 7.529-1.473 11.438.179 3.608.358 7.216.537 10.823.206 4.15.723 8.932 3.832 11.182 1.651 1.195 3.809 1.45 5.222 2.982 1.77 1.919 1.655 4.798 1.729 7.232.043 1.392-.062 2.708.528 3.855z" fill="#dd957c"/><path d="m469.792 311.965c.196.339.359.689.486 1.055.662 1.913.215 4.072.862 5.99 1.026 3.041 4.574 4.869 5.109 8.033.437 2.588-1.331 5.048-1.48 7.669-.163 2.863 1.67 5.572 1.386 8.398-.247 2.455-1.804 5.904-3.27 7.871.454-.609 4.563-.392 5.629-1.043 1.633-.998 1.819-1.626 2.305-3.328.483-1.69.109-3.355.861-5.086.922-2.124 2.818-3.682 3.482-5.947.906-3.09-.738-6.351-.61-9.569.194-4.871 4.404-9.459 2.876-14.088-.896-2.716-3.533-4.451-5.016-6.896-1.126-1.857-1.542-4.045-2.322-6.071-.781-2.026-2.124-4.053-4.207-4.668-1.157-.341-2.402-.202-3.588-.422-2.05-.382-3.754-1.796-5.729-2.464-2.826-.956-7.811 1.901-9.46 4.296-1.637 2.377-.811 4.398.863 6.5 2.786 3.499 9.522 5.79 11.823 9.77z" fill="#3b455a"/><path d="m431.737 297.578c-1.694 1.243-3.784 2.14-5.331 3.592-3.015 2.831-3.588 7.357-3.697 11.491-.097 3.681-1.707 6.952-1.308 10.788.268 2.576 1.363 5.182 3.46 6.703 2.611 1.894 6.71 2.205 7.875 5.213 1.265 3.268-2.12 7.383-.065 10.221 1.134 1.566 3.355 1.796 4.977 2.848 1.809 1.174 2.739 3.271 3.844 5.123s2.764 3.708 4.921 3.754c.087-3.28.184-5.879-1.217-8.878-.816-1.747-3.219-4.971-1.373-6.863 1.164-1.573 3.912-2.084 3.983-4.04.033-.918-.608-1.7-1.113-2.467-1.957-2.97-2.156-6.926-.829-10.226 1.327-3.299 4.06-5.935 7.261-7.485 3.751-1.817 3.147-2.733 4.237-6.324 1.003-3.305 2.879-4.08 5.854-5.285 2.671-1.082 3.53-1.756 4.516-4.256.721-1.829 1.61-4.021.563-6.062-.831-1.623-2.328-2.783-3.779-3.889-3.029-2.309-6.432-4.737-10.231-4.464-2.11.152-4.095 1.143-6.207 1.263-1.409.08-2.81-.232-4.22-.279-2.404-.08-4.94.65-6.886 2.082-1.964 1.444-1.908 2.955-2.999 5.004-.534 1.005-1.328 1.77-2.236 2.436z" fill="#3b455a"/><path d="m440.243 284.093c.369-2.285.132-5.263-2.05-6.035-1.196-.423-2.536.04-3.779-.212-2.648-.539-3.551-3.746-4.939-6.065-.208-.347-.455-.699-.825-.863-.529-.236-1.135-.026-1.709.044-2.636.321-4.639-2.28-7.121-3.223-3.072-1.167-6.938.754-7.863 3.907-.38 1.296-.314 2.688-.671 3.99-1.446 5.276-9.174 7.521-9.369 12.989-.132 3.695 3.484 7.235 2.078 10.654-.899 2.187-3.712 3.678-3.391 6.02.207 1.507 1.812 2.533 3.332 2.511 1.521-.021 2.918-.856 4.064-1.856 1.819-1.588 3.189-3.626 4.921-5.307s4.043-3.045 6.438-2.746c2.32.29 4.42 2.096 6.726 1.71 1.845-.309 3.214-1.955 5.026-2.418 1.695-.434 3.458.232 5.204.337 1.747.105 3.892-.804 3.938-2.553.011-.424-.107-.862.026-1.264.373-1.128 2.299-1.063 2.665-2.193-.912-1.406-2.197-.902-2.851-2.738-.504-1.42-.082-3.254.15-4.689z" fill="#3b455a"/><path d="m853.265 707.116c-2.67.09-5.235-.509-7.857-.751-1.353-25.993 1.103-53.235 2.169-79.351 6.677.356 13.355.713 20.032 1.069-4.65 13.958-7.969 28.357-9.911 42.94-.307 2.312-4.052 36.08-4.433 36.093z" fill="#eac1a4"/><path d="m844.6 701.323c-1.648-.294-2.62.44-3.719 1.444-.638.583-1.072 1.408-1.842 1.826-.769.417-1.525.499-2.44.591-4.817.484-15.915.283-10.003 8.34 5.369 7.316 19.628 4.404 27.865 2.416.542-.131 1.114-.212 1.511-.631s.665-1.017.834-1.635c.94-3.443 2.225-7.741-2.008-9.184-1.806-.615-3.469.58-5.38-.082-1.565-.544-3.17-2.791-4.818-3.085z" fill="#262d3a"/><path d="m832.605 642.691c13.617-.264 27.235-.528 40.852-.792 11.016-52.439 20.716-105.154 29.09-158.08.649-4.104 1.281-8.371.099-12.354-2.237-7.533-10.304-11.831-18.028-13.274-12.003-2.243-34.057.88-40.212 13.36-6.505 13.189-5.413 36.745-6.991 51.319-4.305 39.771-5.917 79.833-4.81 119.821z" fill="#3b455a"/><path d="m931.139 707.116c2.67.09 5.235-.509 7.857-.751 1.353-25.993-1.103-53.235-2.169-79.351-6.677.356-13.355.713-20.032 1.069 4.65 13.958 7.969 28.357 9.911 42.94.307 2.312 4.053 36.08 4.433 36.093z" fill="#eac1a4"/><path d="m939.804 701.323c1.648-.294 2.62.44 3.719 1.444.638.583 1.072 1.408 1.841 1.826.77.417 1.525.499 2.44.591 4.817.484 15.915.283 10.003 8.34-5.369 7.316-19.628 4.404-27.865 2.416-.542-.131-1.114-.212-1.511-.631s-.665-1.017-.834-1.635c-.94-3.443-2.225-7.741 2.008-9.184 1.806-.615 3.469.58 5.38-.082 1.566-.544 3.171-2.791 4.819-3.085z" fill="#262d3a"/><path d="m951.799 642.691c-13.617-.264-27.235-.528-40.852-.792-11.016-52.439-20.716-105.154-29.09-158.08-.649-4.104-1.281-8.371-.099-12.354 2.237-7.533 10.304-11.831 18.028-13.274 12.003-2.243 34.057.88 40.212 13.36 6.505 13.189 5.413 36.745 6.991 51.319 4.305 39.771 5.917 79.833 4.81 119.821z" fill="#3b455a"/><path d="m822.976 279.781c.182.196.368.4.483.632 1.067 2.163.329 3.929.762 6.294.193 1.055 2.74 2.11 1.111 3.646-.601.567-2.272 1.748-3.565 2.944-1.886 1.744-3.223 5.095-3.794 7.951-2.241 11.222-1.367 22.743-.143 34.111.07.648.153 1.323.513 1.866.646.972 1.941 1.216 3.094 1.398 5.346.844 10.614 2.187 15.713 4.004 4.549 1.622 9.073 3.694 12.478 7.118 3.406 3.424 5.532 8.436 4.464 13.146-.8 3.527-3.406 6.594-6.758 7.952-8.313 3.369-17.557-5.918-23.909-10.247-6.01-4.096-11.733-8.614-17.112-13.51-.664-.605-1.34-1.238-1.713-2.055-.397-.871-.411-1.861-.415-2.818-.052-12.324.985-24.583 2.275-36.885.355-3.38 2.441-6.145 2.741-9.274.191-1.997-1.095-3.701-1.332-5.625-.234-1.903-.056-4.462.428-6.316.955-3.656 4.582-5.097 7.628-6.668.758-.391 1.269-.658 2.069-.65 1.3.013 2.295.789 3.31 1.524.601.437 1.17.922 1.672 1.462z" fill="#eac1a4"/><path d="m826.893 360.387c2.062-6.953 4.123-13.907 6.185-20.861-.132.446 32.124 7.424 34.031 7.905 7.274 1.836 14.798 3.794 20.64 8.5 12.475 10.051 6.491 30.273-10.08 30.489-17.989.235-37.581-6.38-52.018-17.04-.314-.232-.639-.481-.796-.838-.216-.49-.066-1.055.086-1.569.651-2.195 1.302-4.39 1.952-6.586z" fill="#d34e4e"/><path d="m916.882 355.143c10.917 10.39 19.095 23.737 24.02 37.563 8.722 24.483 8.89 50.624 8.97 76.24.027 8.526.053 17.051.08 25.577.027 8.388-.715 10.194-9.831 9.088-16.893-2.049-34.454-5.532-49.76-13.039-7.284-3.572-14.091-8.084-21.728-10.897-11.108-4.091-22.497-2.239-33.487-4.901 4.771-14.422 8.186-26.707 10.634-41.566 2.521-15.301 4.813-31.99 8.508-47.085 2.217-9.058 6.34-17.52 10.535-25.849 2.819-5.598 5.804-11.328 10.592-15.375 14.422-12.19 30.591-.107 41.467 10.244z" fill="#d34e4e"/><path d="m877.491 319.226c2.062 4.507 5.431 8.263 8.182 12.385 2.676 4.011 3.639 7.639 4.349 12.29.513 3.359 1.713 5.984 5.759 6.559 7.63 1.084 5.448-5.22 7.182-9.806 1.981-5.242 6.206-9.385 9.158-14.064 8.531-13.521 6.096-40.245-11.636-45.948-19.389-6.237-29.251 24.908-22.994 38.584z" fill="#eac1a4"/><path d="m908.397 306.142c2.201.089 4.622.263 6.254 1.742 1.633 1.478 1.455 4.703-.699 5.051-1.954.316-4.483-1.723-5.677-.235-.697.87-.085 2.142.444 3.159 2.031 3.903 2.639 8.428 1.691 12.586.804.745 2.057-.028 2.763-.804 3.505-3.85 6.244-8.348 8.037-13.2.704 1.174 1.737 2.174 2.955 2.86-.73-1.824-.268-3.82.183-5.682 1.657-6.839 2.784-14.852-1.992-20.441-2.555-2.99-6.442-4.711-10.35-5.434s-7.891-.548-11.83-.369c-1.686.076-3.762.439-4.166 1.999 3.696 1.482 7.52 4.369 9.37 7.868.568 1.074 2.792 10.891 3.017 10.9z" fill="#2c3544"/><path d="m900.586 289.708c.135.098.267.196.397.295 1.675 1.275 3.246 2.826 5.273 3.392 2.922.815 6.062-.593 8.938.402 3.216 1.113 5.33 4.958 7.677 7.234 3.849 3.732 8.622 6.476 13.745 8.035 2.617.796 5.328 1.286 8.059 1.44 1.238.07 2.894.305 4.102-.021 1.62-.436 1.564-1.173-.162-1.726-5.413-1.734-7.11-9.337-6.701-14.377.323-3.978 1.695-8.136.178-11.827-1.159-2.82-3.648-4.276-6.054-5.889-2.654-1.779-5.53-1.3-8.543-2.156-3.143-.892-5.703-3.367-8.909-3.999-3.386-.667-6.77.834-10.158 1.492-2.799.544-5.709.508-8.494-.105-2.495-.549-4.93-1.559-7.485-1.535-3.768.035-7.232 2.386-9.431 5.446-3.11 4.328-5.12 11.734-4.025 17.432-.17-.884 2.806-4.088 3.418-4.777 1.292-1.454 2.852-2.818 4.825-3.053 4.467-.53 9.76 1.691 13.35 4.297z" fill="#3b455a"/><path d="m904.596 465.379c-.038-.265-.075-.539-.037-.795.353-2.386 1.965-3.418 2.955-5.609.441-.977-1.053-3.294 1.161-3.63.817-.124 2.863-.145 4.607-.392 2.543-.361 5.549-2.355 7.643-4.379 2.814-2.72 5.73-5.665 8.088-8.75 4.953-6.481 9.752-14.242 13.387-21.557-11.813-6.54-19.376-20.086-18.747-33.573.066-1.41.23-2.868.956-4.078.614-1.023 1.582-1.786 2.601-2.407 10.774-6.568 16.536 3.921 21.534 12.179 3.119 5.154 5.958 10.584 8.284 16.145 3.258 7.788.687 14.588-3.822 21.469-4.778 7.292-9.749 14.594-15.992 20.73-3.034 2.982-6.412 5.178-9.776 7.714-3.325 2.507-2.023 3.846-4.371 6.787-1.31 1.641-2.335 3.561-3.933 4.935-2.866 2.463-6.668 1.584-10.067 1.143-.846-.11-1.418-.181-2.071-.643-1.062-.751-1.438-1.955-1.855-3.137-.248-.699-.44-1.421-.545-2.152z" fill="#eac1a4"/><path d="m947.237 396.864c-5.652 4.545-11.303 9.091-16.955 13.636.363-.292-22.193-24.383-23.487-25.864-4.937-5.649-10.011-11.539-12.137-18.734-4.54-15.363 11.886-28.588 25.637-19.338 14.927 10.043 27.275 26.629 33.081 43.61.126.369.251.759.178 1.142-.101.526-.546.906-.963 1.241-1.785 1.437-3.57 2.872-5.354 4.307z" fill="#d34e4e"/><path d="m675.087 196.695c-.016-.091-.028-.183-.045-.274.054.046.103.095.158.141-.036.045-.076.088-.113.133z" fill="#808080" opacity=".49"/><path d="m378.789 311.344c.15-.127.313-.271.487-.449 1.641-1.682 2.409-4.264 2.028-6.57-1.443-.361-2.887-.722-4.33-1.083-.75 1.634-1.761 3.148-2.983 4.467-.274.296-.616.605-1.018.571-.379-.032-.658-.358-.885-.665-3.313-4.48-4.898-10.206-4.361-15.752-.032.33-3.93-.546-4.279-.66-1.798-.589-2.232-.64-4.05.004-.29.059-.558.155-.807.286-.894.317-1.788.634-2.682.951-.566.201-1.169.429-1.512.922-.333.48-.347 1.105-.348 1.69-.008 5.232-.017 10.464-.025 15.695-.001.656.002 1.332.25 1.94.275.673.822 1.193 1.372 1.669 2.522 2.19 5.416 3.95 8.52 5.183.565.224 1.163.45 1.548.92.299.365.432.833.558 1.288.8 2.893 1.601 5.786 2.401 8.679 3.66-1.236 7.524-1.865 11.387-1.852.564-3.962.09-8.068-1.364-11.797-.417-1.069-1.07-2.405-1.002-3.583.065-1.103.472-1.329 1.095-1.854z" fill="#dd957c"/><path d="m363.155 321.086 18.031-2.954 18.391 50.33 43.446-7.401-9.462 57.908-55.267-33.101z" fill="#ebb044"/><path d="m691.478 608.922.66 40.109c-.27 11.128.733 22.222 1.41 33.313.629 10.303-1.448 20.921 3.44 30.47 1.533 2.994 4.795 5.08 7.276 1.621 1.912-2.665 1.032-7.277 1.505-10.371 3.55-23.251 10.159-45.926 13.456-69.221 3.453-24.402-5.987-23.758-27.747-25.921z" fill="#eacdb0"/><path d="m693.757 705.958-2.579 6.69 12.689 11.17 11.625.479 3.759-6.134-15.634-13.594z" fill="#262d3a"/><path d="m663.065 609.312s-7.316 39.443-7.316 39.443c-2.536 17.644-8.3 34.827-10.836 52.472-.583 4.057-.289 8.495-1.985 12.322-1.659 3.744-4.906 3.892-7.771 1.352-3.839-3.403-2.068-9.483-1.997-14.131.469-30.965-1.966-61.491-2.552-92.506-.008-.407.01-.873.325-1.131.256-.21.62-.206.95-.184 3.011.201 31.024 3.215 31.182 2.363z" fill="#eacdb0"/><path d="m633.07 707.604-4.023 5.937 9.841 13.745 11.216 3.089 5.047-5.126-12.162-16.772z" fill="#262d3a"/><path d="m732.816 634.442-5.472-57.342-2.639-37.258-8.872-30.43-47.909-7.436-59.232 10.153-2.847 11.508 11.399 106.523 57.131 4.282-.774-66.299 8.812 41.094-.374 25.205z" fill="#474ebb"/><path d="m621.266 397.376c-.081 1.936-.134 3.871-.168 5.803-.693 39.333 1.475 79.167 1.724 118.826 20.312-3.18 40.846-4.931 61.402-5.242 4.758-.072 26.391 3.269 29.403.428 4.087-3.855-.408-3.129-.109-8.152.387-6.499-2.735-11.821-1.556-19.522 1.386-9.051 4.144-18.003 5.732-27.052 3.185-18.145 5.102-36.512 5.724-54.924.552-16.33-.04-33.267-7.063-48.02-17.318-36.383-73.152-35.729-88.472 2.26-4.536 11.252-6.111 23.434-6.617 35.595z" fill="#fff"/><path d="m740.752 314.753c5.864-7.816 8.344-16.214 10.736-26.758 1.779-7.845 3.252-15.775 4.693-23.688.951-5.235 1.819-9.817 1.846-15.067.023-4.394 2.416-10.501-1.491-13.963.756-1.78 3.358-2.427 4.859-1.208.236.191.458.425.754.498.505.124.99-.272 1.29-.698.876-1.243.97-2.85 1.271-4.342.485-2.403 1.317-6.296 3.096-8.037 1.443-1.412 3.353-2.224 5.215-3.005.345-.145.722-.292 1.082-.192.304.084.533.329.745.563 1.957 2.159 4.143 4.268 5.81 6.618-2.578 2.204-2.992 5.44-4.447 8.351-1.911 3.823-4.266 6.857-4.534 11.326-.417 6.943-.29 13.912-.798 20.863-.993 13.583-2.821 27.076-4.569 40.577-1.184 8.942-2.391 18.091-5.946 26.458-3.502 8.24-8.568 13.222-15.332 19.084-1.555 1.348-3.17 2.73-5.132 3.351-2.977.941-6.278-.056-8.874-1.79-6.862-4.583-9.424-14.584-5.61-21.902 2.048-3.93 5.526-6.878 8.791-9.874 2.575-2.365 4.723-4.737 6.545-7.165z" fill="#eacdb0"/><path d="m684.268 346.339-15.164 27.635c.792 27.917 1.585 55.834 2.377 83.751.365 12.866.73 25.732 1.096 38.597.127 4.467.238 8.935.38 13.402.064 2.005-.49 5.381.654 7.017 2.483 3.552 11.558 2.445 15.517 2.756 6.174.486 12.438.99 18.252 3.122 3.872 1.419 7.541 3.557 11.624 4.13.917.129 1.943.147 2.664-.435.806-.651.943-1.806 1.019-2.839 1.419-19.166 1.449-38.924 2.512-58.295.87-15.853 3.088-32.604 1.713-48.477-.023-.265-.048-.53-.097-.792-1.406-7.635 0-32.855 0-32.858.059-1.06 3.688-3.809 4.388-4.533 3.607-3.726 7.214-7.451 10.821-11.177 7.198-7.434 21.094-16.619 15.508-28.643-.679-1.462-1.714-2.73-2.814-3.908-8.156-8.735-18.58-13.634-24.419-24.389-10.217 5.04-18.544 14.996-29.412 19.143-5.658 2.153-11.64 2.894-17.555 1.444-3.48-.853-10.972-3.565-9.091 3.321 1.08 3.94 7.368 8.864 10.027 12.028z" fill="#ccd2d9"/><path d="m651.277 348.938 15.164 27.635c-.317 0-1.923 67.743-2.053 72.315-.494 17.389-.987 34.778-1.481 52.167-.137 4.833.513 10.495-.433 15.246-1.32 6.633-8.302 5.327-14.253 5.864-13.015 1.173-26.718 3.395-39.769 2.736-3.765-.19 1.19-78.754 1.183-86.085-.025-26.369-5.465-55.624 7.929-79.536 3.897-6.957 10.767-18.111 18.351-21.546 7.067-3.201 17.184-3.746 24.856-5.54l.4 4.972z" fill="#ccd2d9"/><path d="m684.19 281.999c2.388 4.184 3.538 9.003 3.75 13.815.056 1.279.144 2.757 1.178 3.512 1.107.809.134 2.583.976 1.501s3.703-4.84 3.832-6.205c.301-3.198.297-6.425-.014-9.623-.27-2.781-.838-5.686-2.658-7.806-1.079-1.257-2.519-2.14-3.937-2.997-2.056-1.243-4.175-2.495-6.537-2.935-4.071-.758-6.567.702-2.975 3.541 2.574 2.034 4.75 4.331 6.385 7.197z" fill="#3b455a"/><path d="m658.756 336.588c.027 1.969-.376 4.012 1.361 5.54.835.734 1.965 1.029 3.063 1.203 2.84.45 5.781.241 8.529-.605 1.13-.348 2.256-.821 3.11-1.64 1.008-.968 1.059-1.885 1.107-3.152.057-1.485.357-2.994.551-4.499.425-3.293.616-6.612.711-9.929 4.877-.837 10.614-2.414 12.281-7.523.525-1.609.544-3.36.556-5.072.052-7.078.104-14.157.156-21.235.018-2.448.023-4.971-.815-7.243-1.471-3.986-5.209-6.362-8.874-7.857-9.354-3.816-20.257-3.663-28.89 1.764-2.298 1.444-4.466 3.302-5.79 5.824-2.041 3.888-1.784 8.689-1.467 13.176.292 4.142.585 8.283.878 12.424.336 4.763 1.052 10.246 4.751 12.762 1.964 1.336 4.502 1.581 6.195 3.309 2.955 3.017 1.546 7.524 2.42 11.181.121.509.16 1.038.167 1.572z" fill="#eacdb0"/><path d="m691.743 308.088c-.079-1.313-.653-5.159-2.627-2.741-.516.632-.643 1.525-.675 2.367s.007 1.708-.259 2.5c-.609 1.819-2.622 2.647-4.415 2.615-.713-.013-1.44-.13-2.071-.489-.612-.349-1.098-.902-1.572-1.446-1.151-1.321-2.302-2.641-3.453-3.962-1.978-2.27-5.902-1.289-8.568-.94-3.072.401-6.145 1.328-8.656 3.349-.253.204-.5.418-.748.632-.605.522-1.213 1.039-1.917 1.381-2.373 1.155-5.311-.05-6.974-2.211-.762-.99-1.473-2.265-2.657-2.431-.926-.129-1.828.534-2.303 1.401s-.603 1.9-.667 2.904c-.234 3.656.27 7.426 1.854 10.669 3.437 7.032 10.081 7.896 16.758 7.738 2.64-.062 5.279-.125 7.919-.187 4.825-.114 9.926-.314 13.991-3.119 3.586-2.474 5.717-6.682 6.591-11.088.453-2.275.589-4.622.449-6.942zm-17.655 9.967c-2.541 1.709-5.342 1.801-8.174.948-1.204-.363-.693-2.383.513-2.02 2.347.707 4.563.688 6.678-.734 1.064-.716 2.041 1.095.983 1.806z" fill="#3b455a"/><path d="m692.75 269.732c.466-1.715.811-3.464 1.03-5.228-1.633.573-3.412.725-5.118.439-.004-1.018-.008-2.035-.012-3.053-.008-.847-11.46-1.439-12.39-1.516-8.711-.715-16.678-1.394-24.556 3.281-6.729 3.994-11.043 9.957-12.075 17.72-.986 7.416 1.441 17.102 5.729 23.257-.024-1.974-1.161-6.632-.695-8.508.286-1.88.935-3.694 1.831-5.367 1.79-3.342 4.562-6.155 7.765-8.162 5.106-3.2 11.042-4.892 16.972-5.718 5.432-.757 12.052-1.455 17.419-.016 2.58.692 3.008 1.339 4.57-1.265.276-.459 2.459-5.82 2.246-5.823-.906-.013-1.811-.027-2.716-.041z" fill="#3b455a"/><path d="m512.57 227.795-4.411 19.538c-.352 1.559-1.901 2.537-3.46 2.185l-47.852-10.803c-1.559-.352-2.537-1.901-2.185-3.46l4.411-19.538z" fill="#d7dae2"/><path d="m480.611 142.24-9.91 43.894 44.08 9.952 10.184-45.107c-15.994-31.755 9.205-55.971 9.205-55.971l-4.425-4.737c-31.567 9.463-49.134 51.969-49.134 51.969z" fill="#d7dae2"/><path d="m471.848 190.144c5.428 19.402-12.774 25.574-12.774 25.574l23.271 5.254.668.151 5.619 1.269.668.151 23.271 5.254s-13.785-13.394-.548-28.582l2.759-3.128-19.23-4.342-5.619-1.268-19.23-4.342z" fill="#cecfd6"/><path d="m570.057 122.065h28.578v132.231h-28.578z" fill="#cecfd6" transform="matrix(.2202 -.9754 .9754 .2202 272.099 716.7388)"/><path d="m798.55 236.54c-2.56 11.337-13.825 18.453-25.162 15.893l-122.107-27.567-13.674-10.012 6.293-27.876 16.65-3.167 122.107 27.567c11.337 2.56 18.453 13.825 15.893 25.162z" fill="#d34e4e"/><path d="m775.526 239.671c-4.377-.988-7.124-5.337-6.136-9.714s5.337-7.124 9.714-6.136 7.124 5.337 6.136 9.714-5.338 7.124-9.714 6.136z" fill="#ffbc57"/><path d="m784.045 252.285c7.183-2.463 12.712-7.805 14.315-14.903 2.659-11.779-2.505-23.024-20.476-27.081l-100.305-22.645s111.75 29.035 106.466 64.629z" fill="#272525" opacity=".1"/><path d="m516.706 187.559 17.029-25.452-10.736-2.424z" fill="#272525" opacity=".1"/><path d="m601.385 327.548c4.02-4.152 4.958-10.377 2.344-15.548-4.776-9.448-9.553-18.897-14.329-28.345-2.682-5.306-7.345-11.461-8.08-17.232-1.298-10.201 1.01-22.203 1.962-32.401.483-5.179.053-12.374 2.193-17.14.401-.893 6.458-7.739 6.294-7.948-.013-.019-1.27-1.913-1.27-1.913l-1.895 1.277-1.583-.318 4.31-5.212-6.233-4.567s-8.322 3.301-8.322 3.301c-.445 5.604.551 11.443-1.23 16.852-.753 2.288-1.874 4.434-2.82 6.649-1.624 3.805-2.723 7.798-3.982 11.73-1.218 3.804-3.185 7.382-4.332 11.142-2.558 8.391-5.057 16.799-7.585 25.199l21.974 50.354c3.922 8.981 15.783 11.145 22.584 4.12z" fill="#eacdb0"/><path d="m637.836 334.735c-9.09-5.303-16.907-12.721-22.799-21.435-.154-.326-.305-.651-.449-.972-.554-1.237-6.757-14.761-6.936-14.681-.154.069-.308.138-.463.208l-1.344.684c-.064 0-.124 0-.193 0-3.152.043-8.412 3.785-11.335 5.099-7.768 3.49-15.537 6.98-23.305 10.471-.554.249-1.134.519-1.482 1.013-.413.587-.409 1.35-.341 2.079l-2.073 1.056c1.018 1.428 1.929 2.911 2.761 4.433.884 5.927 2.381 11.776 5.995 16.499.214.28.444.545.669.813 1.879 6.268 3.633 12.619 6.309 18.542 7.195 15.922 20.862 28.285 27.732 44.349 5.578-1.627 9.446-6.635 12.411-11.632 5.827-9.823 9.701-20.658 13.539-31.417 1.952-5.471 3.903-10.941 5.855-16.412.341-.956.687-1.943.634-2.957-.138-2.692-2.856-4.381-5.185-5.74z" fill="#ccd2d9"/><path d="m826.317 353.777 33.976-200.692c.539-3.368-4.283-4.516-5.336-1.27l-42.882 149.928 4.923 50.953z" fill="#d6d6d6"/><path d="m841.588 384.027c-.018-.006-.035-.012-.053-.018-5.383-1.781-8.862-14.534-10.341-21.251l-.817-4.117-1.81-9.121-14.422-1.673-7.549 63.062.002-.001c-.005.038-.01.075-.015.113-2.023 16.895 10.018 32.227 26.841 34.178 16.822 1.951 32.154-10.207 34.176-27.101 1.988-16.616-9.625-31.72-26.012-34.071zm-6.832 50.03c-10.705-1.242-18.367-10.999-17.08-21.75s11.043-18.488 21.749-17.246c10.705 1.242 18.367 10.999 17.08 21.75s-11.043 18.488-21.749 17.246z" fill="#474ebb"/><path d="m786.423 333.579 133.56-153.611c2.261-2.553 6.208.444 4.368 3.317l-88.671 128.281-42.507 28.529z" fill="#ededef"/><path d="m710.512 342.494c-11.775 12.284-11.443 31.847.74 43.609s31.675 11.337 43.45-.947c.026-.028.052-.056.078-.083v.002l43.952-45.852-10.445-10.084-8.198 4.389-3.7 1.981c-6.131 3.119-18.196 8.524-22.988 5.494-.016-.01-.031-.019-.047-.029-12.218-11.171-31.262-10.561-42.842 1.52zm8.034 7.757c7.493-7.817 19.897-8.088 27.65-.603s7.964 19.934.471 27.751-19.897 8.087-27.65.603-7.964-19.934-.471-27.751z" fill="#474ebb"/><path d="m828.138 306.786c.628-2.077-.539-4.264-2.605-4.885-2.067-.62-4.251.56-4.879 2.638-.628 2.077.539 4.264 2.605 4.885s4.251-.561 4.879-2.638z" fill="#7f7f7f"/><path d="m275.8 135.851h65.115v186.643h-65.115z" fill="#f2f2f2" transform="matrix(.7729 -.6345 .6345 .7729 -75.3881 247.7061)"/><path d="m242.365 154.619h53.476v53.476h-53.476z" fill="#d34e4e" opacity=".4" transform="matrix(.7729 -.6345 .6345 .7729 -53.9628 211.9389)"/><path d="m280.289 200.813h53.476v53.476h-53.476z" fill="#d34e4e" opacity=".7" transform="matrix(.7729 -.6345 .6345 .7729 -74.6618 246.4946)"/><path d="m318.213 247.008h53.476v53.476h-53.476z" fill="#d34e4e" transform="matrix(.7729 -.6345 .6345 .7729 -95.361 281.0482)"/><path d="m311.219 115.877h65.115v186.643h-65.115z" fill="#f2f2f2" transform="matrix(.9446 -.3282 .3282 .9446 -49.6192 124.4277)"/><path d="m296.733 124.023h53.476v53.476h-53.476z" fill="#ebb044" opacity=".4" transform="matrix(.9446 -.3282 .3282 .9446 -31.5633 114.5257)"/><path d="m316.35 180.479h53.476v53.476h-53.476z" fill="#ebb044" opacity=".7" transform="matrix(.9446 -.3282 .3282 .9446 -49.0071 124.0919)"/><path d="m335.968 236.936h53.476v53.476h-53.476z" fill="#ebb044" transform="matrix(.9446 -.3282 .3282 .9446 -66.4509 133.6587)"/><path d="m350.242 116.688h65.115v186.643h-65.115z" fill="#f2f2f2" transform="matrix(.9996 .0277 -.0277 .9996 5.9594 -10.5149)"/><path d="m357.773 121.43h53.476v53.476h-53.476z" fill="#7fc5a3" opacity=".4" transform="matrix(.9996 .0277 -.0277 .9996 4.2479 -10.5849)"/><path d="m356.119 181.175h53.476v53.476h-53.476z" fill="#7fc5a3" opacity=".7" transform="matrix(.9996 .0277 -.0277 .9996 5.9008 -10.5162)"/><path d="m354.465 240.919h53.476v53.476h-53.476z" fill="#7fc5a3" transform="matrix(.9996 .0277 -.0277 .9996 7.5542 -10.4482)"/><path d="m717.464 446.283c.514-3.839-2.17-7.367-5.996-7.879l-133.69-17.9-133.69-17.9c-3.826-.512-7.344 2.185-7.858 6.025l-2.467 18.423 15.327 6.652-16.423 1.531-2.324 17.356 4.09 1.775-4.382.409-4.383 32.728.3.087 13.526 4.607-14.505.375-3.712 27.718 9.778 3.331-10.26.265-2.394 17.876c-.514 3.84 2.17 7.367 5.996 7.88l133.69 17.9 133.689 17.9c3.826.512 7.344-2.185 7.858-6.025l2.467-18.423-15.327-6.652 16.423-1.531 2.324-17.356-4.09-1.775 4.382-.409 4.383-32.728-.3-.087-13.526-4.607 14.505-.375 3.712-27.718-9.778-3.331 10.26-.265z" fill="#fff"/><g fill="#000100" opacity=".05"><path d="m715.07 464.159 1.913-14.283c-.754 1.739-3.212 7.057-8.039 14.441z"/><path d="m430.131 550.409 127.957 17.132 133.689 17.9c3.826.512 7.344-2.185 7.858-6.025l2.467-18.423-15.327-6.652 16.423-1.531 2.324-17.356-4.09-1.775 4.382-.409 4.383-32.728-.3-.087-13.526-4.607 14.505-.375 3.712-27.718-6.463-2.201c-23.01 34.395-95.196 109.329-277.994 84.855z"/></g><path d="m456.867 417.76c-.36 2.688-2.823 4.576-5.501 4.217-2.678-.358-4.557-2.828-4.197-5.516s2.823-4.576 5.501-4.217 4.557 2.828 4.197 5.516z" fill="#684832"/><path d="m439.923 544.289c-.36 2.688-2.822 4.576-5.5 4.217-2.678-.358-4.557-2.828-4.197-5.516s2.823-4.576 5.501-4.217c2.677.359 4.556 2.828 4.196 5.516z" fill="#684832"/><path d="m446.535 455.896.617-4.52c-2.211.208-5.283 1.172-7.668 4.498l-.62 4.539c2.383-3.337 5.457-4.306 7.671-4.517z" fill="#ebb044"/><path d="m447.152 451.375.617-4.52c-2.207.206-5.278 1.163-7.665 4.479l-.62 4.539c2.385-3.326 5.457-4.289 7.668-4.498z" fill="#e09e34"/><path d="m447.769 446.855.617-4.52c-2.203.203-5.274 1.155-7.662 4.46l-.62 4.539c2.386-3.316 5.458-4.273 7.665-4.479z" fill="#ebb044"/><path d="m448.386 442.335.617-4.52c-2.2.2-5.269 1.146-7.66 4.441l-.62 4.539c2.389-3.305 5.459-4.257 7.663-4.46z" fill="#e09e34"/><path d="m444.684 469.456.617-4.52c-2.221.216-5.297 1.197-7.675 4.555l-.62 4.539c2.376-3.369 5.453-4.355 7.678-4.574z" fill="#e09e34"/><path d="m445.918 460.415.617-4.52c-2.214.211-5.288 1.18-7.67 4.517l-.62 4.539c2.38-3.347 5.455-4.322 7.673-4.536z" fill="#e09e34"/><path d="m445.301 464.936.617-4.52c-2.218.214-5.293 1.189-7.673 4.536l-.619 4.539c2.377-3.358 5.453-4.339 7.675-4.555z" fill="#ebb044"/><path d="m444.067 473.976.617-4.52c-2.225.219-5.302 1.205-7.678 4.573l-.62 4.539c2.374-3.378 5.452-4.37 7.681-4.592z" fill="#ebb044"/><path d="m455.565 420.196c.564-.459.986-1.093 1.179-1.835-1.259-1.574-3.261-3.153-6.375-3.743-1.197.53-2.539 1.481-3.746 3.171 4.253-.667 7.156.846 8.942 2.407z" fill="#e09e34"/><path d="m449.003 437.815.617-4.52c-2.196.197-5.264 1.138-7.657 4.422l-.62 4.539c2.391-3.295 5.46-4.241 7.66-4.441z" fill="#ebb044"/><path d="m456.828 417.948c.262-1.919-1.076-3.687-2.988-3.947-.144-.02-1.638-.194-3.472.619 3.115.589 5.116 2.169 6.375 3.743.036-.136.066-.274.085-.415z" fill="#ebb044"/><path d="m453.038 421.07c.072-.044.136-.074.19-.091.872.035 1.695-.261 2.337-.783-1.786-1.562-4.689-3.075-8.942-2.406-.887 1.242-1.7 2.883-2.329 5.048 3.347-2.39 6.579-2.297 8.744-1.768zm-.131-.118s-.002 0-.003 0zm-.005-.001-.005-.001zm-.005 0-.005-.001z" fill="#ebb044"/><path d="m451.06 424.566c.673-2.237 1.498-3.2 1.978-3.496-2.165-.529-5.397-.623-8.745 1.768-.36 1.238-.661 2.646-.88 4.251l-.135.988c2.613-2.858 5.629-3.5 7.782-3.511z" fill="#e09e34"/><path d="m449.62 433.295.617-4.52c-2.192.195-5.26 1.129-7.655 4.404l-.62 4.539c2.394-3.285 5.462-4.226 7.658-4.423z" fill="#e09e34"/><path d="m450.237 428.775.101-.741c.192-1.403.444-2.544.723-3.468-2.154.011-5.169.653-7.782 3.511l-.696 5.101c2.394-3.274 5.461-4.208 7.654-4.403z" fill="#ebb044"/><path d="m441.599 492.056.617-4.52c-2.239.23-5.322 1.239-7.688 4.648l-.619 4.539c2.363-3.419 5.447-4.434 7.69-4.667z" fill="#ebb044"/><path d="m435.435 537.309c.019-.687.105-1.371.226-1.891.029-.118.051-.237.068-.358l.27-1.976c-2.222.253-5.229 1.283-7.55 4.611.013 1.546.254 3.33 1.024 4.947 1.574-3.163 3.992-4.642 5.962-5.333z" fill="#ebb044"/><path d="m435.998 533.085.617-4.52c-2.272.256-5.368 1.32-7.713 4.829l-.077.567c-.124.566-.393 2.001-.377 3.735 2.322-3.328 5.328-4.358 7.55-4.611z" fill="#e09e34"/><path d="m436.616 528.565.617-4.52c-2.268.253-5.362 1.31-7.709 4.806l-.62 4.542c2.344-3.508 5.44-4.572 7.712-4.828z" fill="#ebb044"/><path d="m437.232 524.045.617-4.52c-2.264.25-5.357 1.299-7.707 4.784l-.62 4.542c2.348-3.497 5.442-4.553 7.71-4.806z" fill="#e09e34"/><path d="m437.25 540.286c-.053 1.534.188 3.641 1.429 5.738.488-.515.828-1.181.931-1.938.233-1.701-.793-3.281-2.36-3.8z" fill="#e09e34"/><path d="m437.849 519.524.664-4.868c-2.26.247-5.351 1.289-7.703 4.762l-.667 4.89c2.349-3.484 5.442-4.533 7.706-4.784z" fill="#ebb044"/><path d="m435.555 538.947c-.102-.483-.135-1.061-.12-1.638-1.97.691-4.388 2.17-5.963 5.334.177.372.381.735.618 1.084 1.07 1.578 2.61 2.649 4.491 3.143-.794-3.409-.081-6.041.974-7.923z" fill="#e09e34"/><path d="m436.623 540.138c-.557-.076-.678-.253-.751-.358-.144-.21-.247-.499-.317-.833-1.054 1.882-1.767 4.514-.973 7.922.353.092.716.167 1.092.219 1.157.158 2.257-.275 3.005-1.064-1.241-2.097-1.483-4.203-1.429-5.738-.201-.067-.41-.118-.627-.148z" fill="#ebb044"/><path d="m439.748 505.617.617-4.52c-2.25.239-5.337 1.264-7.696 4.705l-.62 4.539c2.357-3.452 5.446-4.483 7.699-4.724z" fill="#e09e34"/><path d="m442.216 487.536.617-4.52c-2.236.227-5.317 1.231-7.685 4.63l-.62 4.539c2.366-3.41 5.449-4.419 7.688-4.649z" fill="#e09e34"/><path d="m440.982 496.576.617-4.52c-2.243.233-5.327 1.247-7.691 4.667l-.619 4.539c2.361-3.43 5.447-4.45 7.693-4.686z" fill="#e09e34"/><path d="m442.833 483.016.617-4.52c-2.232.225-5.312 1.222-7.683 4.611l-.62 4.539c2.369-3.399 5.45-4.403 7.686-4.63z" fill="#ebb044"/><path d="m443.45 478.496.617-4.52c-2.228.222-5.307 1.214-7.68 4.592l-.62 4.539c2.371-3.389 5.451-4.386 7.683-4.611z" fill="#e09e34"/><path d="m439.131 510.137.617-4.52c-2.253.241-5.341 1.272-7.698 4.724l-.619 4.539c2.353-3.463 5.443-4.499 7.7-4.743z" fill="#ebb044"/><path d="m438.514 514.657.617-4.52c-2.257.244-5.346 1.281-7.701 4.743l-.62 4.539c2.352-3.474 5.444-4.515 7.704-4.762z" fill="#e09e34"/><path d="m440.365 501.096.617-4.52c-2.246.236-5.332 1.256-7.693 4.686l-.62 4.539c2.359-3.44 5.446-4.466 7.696-4.705z" fill="#ebb044"/><path d="m695.153 449.664c-.36 2.688 1.519 5.157 4.197 5.516 2.678.358 5.141-1.53 5.501-4.217.36-2.688-1.519-5.157-4.197-5.516-2.679-.358-5.141 1.53-5.501 4.217z" fill="#684832"/><path d="m678.209 576.193c-.36 2.688 1.519 5.157 4.197 5.516s5.141-1.53 5.501-4.217c.36-2.688-1.519-5.157-4.197-5.516-2.679-.359-5.141 1.53-5.501 4.217z" fill="#684832"/><path d="m695.087 489.175.594-4.523c2.078.783 4.789 2.52 6.214 6.357l-.597 4.542c-1.42-3.847-4.13-5.59-6.211-6.376z" fill="#ebb044"/><path d="m695.681 484.651.594-4.523c2.075.779 4.787 2.511 6.217 6.338l-.597 4.542c-1.425-3.836-4.136-5.574-6.214-6.357z" fill="#e09e34"/><path d="m696.275 480.128.594-4.523c2.073.775 4.784 2.501 6.219 6.319l-.596 4.542c-1.43-3.827-4.142-5.559-6.217-6.338z" fill="#ebb044"/><path d="m696.869 475.605.594-4.523c2.07.772 4.782 2.492 6.221 6.3l-.597 4.542c-1.434-3.817-4.145-5.544-6.218-6.319z" fill="#e09e34"/><path d="m693.305 502.744.594-4.523c2.086.793 4.796 2.549 6.206 6.413l-.596 4.542c-1.406-3.874-4.115-5.635-6.204-6.432z" fill="#e09e34"/><path d="m694.493 493.698.594-4.523c2.081.786 4.791 2.53 6.211 6.375l-.596 4.542c-1.416-3.855-4.126-5.605-6.209-6.394z" fill="#e09e34"/><path d="m693.899 498.221.594-4.523c2.083.789 4.794 2.539 6.209 6.394l-.596 4.542c-1.411-3.865-4.121-5.62-6.207-6.413z" fill="#ebb044"/><path d="m692.711 507.267.594-4.523c2.089.797 4.798 2.558 6.204 6.432l-.596 4.542c-1.401-3.883-4.11-5.65-6.202-6.451z" fill="#ebb044"/><path d="m695.768 452.357c-.423-.591-.663-1.314-.655-2.08 1.629-1.187 3.976-2.184 7.135-1.934 1.015.827 2.06 2.097 2.779 4.045-3.926-1.763-7.126-1.068-9.259-.031z" fill="#e09e34"/><path d="m697.463 471.082.594-4.523c2.067.768 4.779 2.482 6.224 6.281l-.596 4.542c-1.44-3.808-4.152-5.528-6.222-6.3z" fill="#ebb044"/><path d="m695.14 449.855c.252-1.92 2.008-3.273 3.922-3.022.144.019 1.631.244 3.187 1.511-3.16-.251-5.506.746-7.135 1.934.001-.14.008-.281.026-.423z" fill="#ebb044"/><path d="m705.947 457.872c-.038-2.254-.39-4.052-.919-5.483-3.928-1.764-7.127-1.069-9.26-.032.482.673 1.197 1.174 2.048 1.37.048.03.103.076.16.138 2.228.059 5.371.819 7.971 4.007zm-7.811-4.086h-.003zm.007.001h-.004zm.005.001s-.003 0-.005 0c.002-.001.004 0 .005 0z" fill="#ebb044"/><path d="m698.964 457.759c-.061-2.335-.603-3.481-.988-3.893 2.228.059 5.371.819 7.971 4.006.022 1.289-.059 2.727-.269 4.333l-.13.988c-1.768-3.445-4.509-4.858-6.584-5.434z" fill="#e09e34"/><path d="m698.057 466.559.594-4.523c2.064.765 4.777 2.473 6.226 6.262l-.597 4.542c-1.444-3.799-4.156-5.513-6.223-6.281z" fill="#e09e34"/><path d="m698.651 462.036.097-.741c.185-1.405.241-2.571.215-3.536 2.075.577 4.816 1.989 6.584 5.434l-.67 5.105c-1.449-3.789-4.162-5.498-6.226-6.262z" fill="#ebb044"/><path d="m690.335 525.36.594-4.523c2.1.811 4.808 2.595 6.194 6.507l-.596 4.542c-1.381-3.921-4.09-5.711-6.192-6.526z" fill="#ebb044"/><path d="m684.375 570.64c.163-.667.26-1.351.279-1.883.003-.122.013-.242.029-.363l.26-1.977c2.078.829 4.707 2.613 6.071 6.435-.42 1.488-1.121 3.145-2.29 4.503-.687-3.467-2.63-5.53-4.349-6.715z" fill="#ebb044"/><path d="m684.943 566.416.594-4.523c2.124.845 4.831 2.685 6.171 6.688l-.075.567c-.029.578-.148 2.034-.619 3.703-1.364-3.821-3.994-5.606-6.071-6.435z" fill="#e09e34"/><path d="m685.537 561.893.594-4.523c2.122.841 4.829 2.674 6.173 6.665l-.597 4.545c-1.339-4.001-4.046-5.842-6.17-6.687z" fill="#ebb044"/><path d="m686.131 557.37.594-4.523c2.119.837 4.827 2.663 6.176 6.643l-.597 4.545c-1.344-3.991-4.052-5.824-6.173-6.665z" fill="#e09e34"/><path d="m681.84 573.034c-.352 1.494-1.139 3.463-2.889 5.16-.335-.625-.488-1.357-.388-2.115.224-1.702 1.629-2.956 3.277-3.045z" fill="#e09e34"/><path d="m686.725 552.847.64-4.871c2.116.833 4.824 2.651 6.179 6.621l-.643 4.894c-1.35-3.981-4.058-5.807-6.176-6.644z" fill="#ebb044"/><path d="m683.828 572.189c.226-.439.41-.988.547-1.549 1.719 1.185 3.662 3.248 4.349 6.715-.269.312-.561.609-.881.883-1.448 1.241-3.215 1.869-5.16 1.851 1.663-3.08 1.667-5.807 1.145-7.9z" fill="#e09e34"/><path d="m682.485 573.057c.558.073.721-.065.818-.148.194-.165.369-.417.525-.72.522 2.093.517 4.82-1.146 7.899-.365-.003-.735-.027-1.111-.077-1.158-.152-2.105-.859-2.62-1.817 1.749-1.696 2.536-3.665 2.889-5.16.212-.011.427-.006.645.023z" fill="#ebb044"/><path d="m688.553 538.929.594-4.523c2.108.822 4.816 2.623 6.187 6.564l-.596 4.542c-1.367-3.95-4.075-5.757-6.185-6.583z" fill="#e09e34"/><path d="m690.929 520.837.594-4.523c2.097.807 4.806 2.586 6.197 6.489l-.597 4.542c-1.386-3.913-4.095-5.697-6.194-6.508z" fill="#e09e34"/><path d="m689.741 529.883.594-4.523c2.102.815 4.811 2.605 6.192 6.526l-.597 4.542c-1.376-3.931-4.084-5.727-6.189-6.545z" fill="#e09e34"/><path d="m691.523 516.314.594-4.523c2.094.804 4.803 2.577 6.199 6.47l-.597 4.542c-1.39-3.903-4.099-5.682-6.196-6.489z" fill="#ebb044"/><path d="m692.117 511.79.594-4.523c2.092.8 4.801 2.567 6.202 6.451l-.596 4.542c-1.397-3.893-4.106-5.666-6.2-6.47z" fill="#e09e34"/><path d="m687.959 543.453.594-4.523c2.11.826 4.818 2.633 6.184 6.583l-.597 4.542c-1.36-3.96-4.069-5.773-6.181-6.602z" fill="#ebb044"/><path d="m687.365 547.976.594-4.523c2.113.829 4.821 2.642 6.182 6.601l-.596 4.542c-1.357-3.969-4.065-5.787-6.18-6.62z" fill="#e09e34"/><path d="m689.147 534.406.594-4.523c2.105.818 4.813 2.614 6.189 6.545l-.596 4.542c-1.371-3.94-4.08-5.742-6.187-6.564z" fill="#ebb044"/><path d="m489.395 446.499c.742-.929 2.007-2.304 4.045-2.544 3.705-.017 9.714 2.335 10.79 3.509-.068.505 2.357.831 4.781 1.157 42.48 6.482 38.94 37.406 38.731 43.555-.566 8.803-4.466 17.159-9.476 24.593-6.917 10.137-23.548 19.098-28.131 21.056-11.591 4.747-20.306-2.729-20.504-5.844.068-.506-.183-2.084-.653-3.177-1.63-2.793-2.113-35.931-1.892-37.574-.669-4.208.86-29.354.729-32.975.272-2.022.34-2.528-.651-4.335-2.691-2.935-2.268-4.937.293-5.623 1.28-.342 1.87-1.292 1.938-1.798zm39.976 44.624c2.86-12.099-1.859-22.9-12.68-29.63-1.834-1.276-4.19-2.108-6.615-2.434-4.175-1.075-4.158-1.202-3.773.523-2.032 38.076-.336 56.449.501 60.551 18.974-9.16 22.16-25.977 22.567-29.01z" fill="#3b455a"/><path d="m560.392 470.326c.957-11.711 1.699-12.641 4.192-12.821 4.311.064 8.487 1.141 10.639 3.489 1.546 2.267 2.299 7.001 2.01 22.919-.079 9.77-.039 18.655-.705 55.756.983 8.754-4.996 9.624-9.239 9.053-5.993-1.32-10.116-3.934-10.11-8.565-.262-7.24 2.189-57.614 3.213-69.831z" fill="#3b455a"/><path d="m639.122 480.264c6.662-8.242 7.252-9.191 9.88-10.382 3.841-1.029 9.683.271 11.767 3.126 2.085 2.854 1.073 4.648-6.247 14.346-10.878 13.208-17.824 20.125-19.914 21.903-1.669 2.092-2.209 2.663-2.939 8.099-1.473 6.365-2.214 21.065-1.936 28.18.29 11.621-4.56 10.969-8.196 10.48-5.91-.794-8.669-3.224-9.825-8.398-.669-4.208-.42-15.242 1.868-27.675 1.682-12.514 2.1-9.885-9.21-30.192-.402-1.599-2.838-6.43-5.206-11.767-4.97-12.379-4.495-15.918 1.347-14.618 3.637.489 7.206 1.483 8.753 3.75 1.076 1.175 15.004 28.398 14.936 28.904-.204 1.514 12.022-12.542 14.922-15.756z" fill="#3b455a"/><path d="m523.569 419.358c.138.501.005 1.052.18 1.541.232.647.95 1.004 1.634 1.071 1.5.147 2.954-.821 3.726-2.116s.966-2.857.938-4.364c-.058-3.179-1.278-6.632-4.093-8.108-1.351-.709-2.91-.882-4.428-1.043-5.331-.566-12.452 3.784-10.35 10.231.762 2.336 3.448 3.922 5.855 3.997 1.698.052 5.861-3.665 6.538-1.209z" fill="#dd957c"/><path d="m525.566 413.259c2.288.837 4.857 1.936 7.037.849 1.626-.81 2.514-2.703 2.524-4.519s-.725-3.56-1.652-5.122c-1.98-3.335-4.98-6.144-8.631-7.452s-7.955-.977-11.119 1.266c-1.951 1.382-3.379 3.382-4.554 5.464-.853 1.513-2.506 4.165-2.343 5.98.252 2.816 1.288 2.059 3.863 1.855 5.101-.405 10.024-.096 14.875 1.679z" fill="#ebb044"/><path d="m159.105 369.951c.268-.005.544-.008.793.061 2.324.643 3.151 2.37 5.204 3.62.916.558 3.398-.641 3.46 1.597.023.826-.207 2.859-.176 4.621.046 2.568 1.657 5.796 3.409 8.123 2.354 3.127 4.919 6.382 7.692 9.1 5.825 5.711 12.938 11.426 19.752 15.93 7.94-10.921 22.311-16.766 35.619-14.488 1.391.238 2.818.58 3.93 1.449.94.734 1.579 1.789 2.07 2.877 5.197 11.498-5.92 15.931-14.729 19.877-5.497 2.463-11.234 4.615-17.039 6.241-8.128 2.278-14.562-1.108-20.839-6.426-6.651-5.636-13.289-11.465-18.612-18.414-2.587-3.377-4.353-6.999-6.457-10.649-2.08-3.607-3.569-2.48-6.2-5.17-1.468-1.501-3.248-2.754-4.415-4.509-2.093-3.146-.755-6.812.1-10.131.213-.826.354-1.385.892-1.976.875-.962 2.117-1.188 3.34-1.456.728-.16 1.469-.262 2.206-.277z" fill="#eac1a4"/><path d="m224.019 430.332c-4.421 1.458-8.821 2.699-13.105 3.729-6.387 1.535-13.387 3.014-19.296.144-2.278-1.106-4.216-2.791-6.116-4.466-9.005-7.939-17.811-16.104-26.406-24.485 3.197-5.435 7.224-10.381 11.897-14.614 1.311-1.188 2.816-2.378 4.584-2.447 2.627-.102 4.623 2.232 6.186 4.345l7.638 10.326c.826 1.117 1.785 2.319 3.153 2.56.893.157 1.799-.134 2.655-.434 16.185-5.678 28.534-13.547 42.625-23.094 6.212-4.207 12.68-8.52 20.081-9.747 15.804-2.621 26.914 15.303 16.047 27.815-12.391 14.267-31.358 24.238-49.943 30.368z" fill="#474ebb"/><path d="m297.972 725.345-.248 7.651-15.549 7.155-7.403-7.899 7.899-7.402 15.548-7.155z" fill="#3b455a"/><path d="m329.488 495.18-.753 23.235-34.241 99.682 4.358 104.809-15.274 2.543-31.055-128.095 2.403-37.56 16.789-76.218z" fill="#d7dbe0"/><path d="m232.721 498.894-19.426 95.758-5.531 127.191 13.906 2.654 30.574-112.499 40.819-110.544z" fill="#d7dbe0"/><path d="m221.906 722.827-1.435 7.519-16.473 4.649-6.084-8.954 8.954-6.084z" fill="#3b455a"/><path d="m341.727 508.653c.195 8.914-.085 20.927-3.509 21.367-.642.082-1.257-.235-1.818-.541-5.922-3.233-10.111-7.784-15.948-10.907-6.118-3.274-13.117-5.014-19.981-6.231-10.263-1.875-20.754-3.039-31.211-3.221-8.221-.143-16.48.557-24.666 1.238-6.811.567-13.148 2.585-20.086 2.104-7.111-.493-14.116-2.671-20.194-6.407-.223-.137-.458-.292-.55-.537-.101-.267-.003-.564.095-.833 1.452-3.98 2.496-7.922 5.134-11.218 2.945-3.681 5.039-8.358 7.168-12.548 4.437-8.732 8.616-17.884 11.717-27.187 4.686-12.645 10.04-24.962 14.57-37.649 3.14-8.793 6.004-17.743 10.264-26.08 3.336-6.528 9.282-16.063 16.444-18.938 2.424-.973 5.098-1.06 7.709-1.135 7.92-.228 15.841-.455 23.761-.683 2.887-.083 5.891-.144 8.523 1.046 3.944 1.783 6.174 5.925 8.123 9.79 8.74 17.33 14.313 36.014 17.434 55.283 1.629 10.061 3.137 20.141 4.31 30.26 1.309 11.291 2.208 22.634 2.398 33.995.02 1.261.22 4.796.313 9.032z" fill="#474ebb"/><path d="m288.88 413.063c-.298 4.488.342 8.979.98 13.433 3.888 27.127 7.777 54.254 11.665 81.381-21.267-.185-42.534-.37-63.8-.555.77-10.164 1.54-20.328 2.31-30.491.494-6.516.991-13.055 2.366-19.449 2.219-10.314 6.67-20.022 11.09-29.638 8.167-17.768 16.333-35.536 24.5-53.303.437-.95.897-1.932 1.702-2.616.964-.819 2.28-1.094 3.538-1.312 6.08-1.056 12.944-1.95 19.053-1.053 1.527 5.561-4.107 15.23-6.195 20.404-3.038 7.527-6.665 14.999-7.209 23.199z" fill="#fff"/><path d="m284.955 374.372c4.408-.191 8.816-.383 13.224-.574.237-3.51.194-7.039-.13-10.543.039.425 7.093-3.293 7.718-4.137 1.796-2.428 2.006-6.508 2.753-9.397 1.592-6.155 3.088-13.085-.164-18.547-3.368-5.657-10.656-7.593-17.238-7.765-8.263-.216-17.49 2.193-21.74 9.284-3.838 6.404 1.004 15.85 2.387 22.623.682 3.339 1.722 7.15 4.824 8.56 1.647.749 3.646.668 5.116 1.722 2.594 1.856 2.01 5.833 3.25 8.774z" fill="#eacdb0"/><path d="m256.357 320.446c-.491-4.568-.983-9.135-1.474-13.703-.183-1.696-.359-3.457.19-5.072.912-2.687 3.641-4.365 6.38-5.107 2.739-.741 5.623-.769 8.394-1.379 2.957-.651 5.833-1.969 8.859-1.836 5.754.254 10.158 5.59 15.845 6.499 7.874 1.258 15.106-2.349 19.86 6.918.874 1.703 1.116 3.663 1.886 5.415.995 2.263 2.806 4.048 4.222 6.074 6.226 8.91 4.213 22.432-3.334 29.983-3.659 3.661-5.155 6.973-10.197 8.147 2.309-4.693-.74-23.387-7.06-25.484-1.674-.555-6.702 1.493-8.556 1.764-4.108.6-8.101 1.259-11.965 2.859-5.735 2.375-11.961 4.059-18.168 4.522-.794.059-1.681.089-2.281-.435-.564-.493-.681-1.311-.761-2.056-.613-5.702-1.226-11.405-1.84-17.109z" fill="#3b455a"/><path d="m199.993 366.166h8.506v38.135h-8.506z" fill="#8b8d96" transform="matrix(.8678 .4969 -.4969 .8678 218.4374 -50.5644)"/><path d="m199.803 367.35-5.542 9.678-2.145 3.747-5.542 9.678 4.506 9.214 8.403-14.674 2.145-3.746 8.402-14.673z" fill="#b5b8c4"/><path d="m338.63 423.973-98.388-56.34-21.183.289-9.063 15.827-4.12 7.194-9.063 15.827 10.165 25.268c3.125 7.769 8.686 14.315 15.847 18.656l28.891 17.51c4.106 2.488 6.262 7.243 5.429 11.971l-10.652 60.487c-1.158 6.574 1.932 13.167 7.725 16.484l9.108 5.215c9.516 5.45 21.557-.193 23.459-10.993l8.64-49.064c.571-3.241 3.873-5.13 7.014-4.148 5.784 1.808 14.727 2.07 21.292-9.396l8.235-14.382 4.845-8.46 2.06-3.597 2.06-3.597 4.845-8.46c5.287-9.231 2.088-21.003-7.146-26.291z" fill="#d34e4e"/><path d="m183.854 370.615h9.898v11.971h-9.898z" fill="#8b8d96" transform="matrix(-.8678 -.4969 .4969 -.8678 165.4963 797.2324)"/><path d="m87.095 337.068h77.888v7.772h-77.888z" fill="#8b8d96" transform="matrix(-.8678 -.4969 .4969 -.8678 65.9852 699.4641)"/><path d="m122.814 304.948h2.073v76.14h-2.073z" fill="#272525" opacity=".1" transform="matrix(.4969 -.8678 .8678 .4969 -235.3624 280.0395)"/><path d="m185.037 375.681h2.85v9.784h-2.85z" fill="#272525" opacity=".1" transform="matrix(.4969 -.8678 .8678 .4969 -236.4544 353.2689)"/><g fill="#b5b8c4"><path d="m94.397 328.682-5.19-2.972 10.13-5.897 5.127 3.01z"/><path d="m104.642 334.548-5.191-2.972 10.131-5.897 5.126 3.01z"/><path d="m114.887 340.415-5.191-2.973 10.13-5.896 5.127 3.009z"/><path d="m125.131 346.281-5.191-2.972 10.131-5.897 5.126 3.01z"/><path d="m135.376 352.147-5.191-2.972 10.13-5.897 5.127 3.01z"/><path d="m145.62 358.014-5.191-2.972 10.131-5.897 5.126 3.01z"/><path d="m155.865 363.88-5.191-2.972 10.13-5.897 5.127 3.01z"/><path d="m164.26 356.137h21.545v25.747h-21.545z" transform="matrix(.8678 .4969 -.4969 .8678 206.5128 -38.1925)"/></g><path d="m162.783 351.639-3.741 6.534-1.449 2.53-3.741 6.534 5.435 7.591 5.673-9.907 1.449-2.529 5.673-9.907z" fill="#8b8d96"/><path d="m265.917 541.521 6.607-37.399c1.184-6.703-1.965-13.427-7.871-16.81l-7.961-4.559-9.892 56.174 11.091 6.351c3.255 1.865 7.373-.063 8.026-3.757z" fill="#7fc5a3"/><path d="m226.068 379.113h3.109v32.379h-3.109z" fill="#4b4b4b" transform="matrix(.8678 .4969 -.4969 .8678 226.5363 -60.8495)"/><path d="m232.542 382.821h3.109v32.379h-3.109z" fill="#4b4b4b" transform="matrix(.8678 .4969 -.4969 .8678 229.2146 -63.5766)"/><path d="m324.225 442.474-34.404-19.701c-.929-.532-1.251-1.717-.719-2.647l2.604-4.548c.532-.929 1.717-1.251 2.647-.719l34.404 19.701c.93.532 1.252 1.717.719 2.647l-2.604 4.548c-.532.929-1.717 1.251-2.647.719z" fill="#ffbc57"/><path d="m333.742 459.361c.283 1.037.153 2.44-.864 2.787-.61.208-1.262-.074-1.884-.243-2.35-.641-5.069.546-6.197 2.706-1.328 2.544-.362 5.838 1.668 7.866 2.029 2.028 4.891 2.996 7.714 3.507 1.773.321 3.775.435 5.197-.672.73-.569 1.211-1.394 1.637-2.216 2.19-4.22 4.204-9.801 1.104-14.103-2.439-3.384-10.29-6.645-8.375.368z" fill="#eacdb0"/><path d="m354.295 460.337c-.318-.482-.692-.937-1.128-1.362-3.518-3.424-8.164-6.831-13.363-5.723.668 9.507-1.677 19.203-6.617 27.354-.391.645-.813 1.396-.57 2.11.457 1.341 4.526 2.638 5.769 2.807 5.481.746 11.406-1.481 14.164-5.322 1.618-2.253 2.167-4.878 2.669-7.442.776-3.961 1.414-8.885-.924-12.422z" fill="#474ebb"/></svg>